<?xml version="1.0" encoding="UTF-8" standalone="no"?>
<svg
   xmlns:dc="http://purl.org/dc/elements/1.1/"
   xmlns:cc="http://creativecommons.org/ns#"
   xmlns:rdf="http://www.w3.org/1999/02/22-rdf-syntax-ns#"
   xmlns:svg="http://www.w3.org/2000/svg"
   xmlns="http://www.w3.org/2000/svg"
   xmlns:sodipodi="http://sodipodi.sourceforge.net/DTD/sodipodi-0.dtd"
   xmlns:inkscape="http://www.inkscape.org/namespaces/inkscape"
   width="4.1970959mm"
   height="4.669919mm"
   viewBox="0 0 4.1970959 4.669919"
   version="1.1"
   id="svg8"
   inkscape:version="1.0.1 (3bc2e813f5, 2020-09-07)"
   sodipodi:docname="4.svg">
  <defs
     id="defs2" />
  <sodipodi:namedview
     id="base"
     pagecolor="#ffffff"
     bordercolor="#666666"
     borderopacity="1.0"
     inkscape:pageopacity="0.0"
     inkscape:pageshadow="2"
     inkscape:zoom="15.839192"
     inkscape:cx="18.410167"
     inkscape:cy="11.456021"
     inkscape:document-units="mm"
     inkscape:current-layer="layer1"
     inkscape:document-rotation="0"
     showgrid="false"
     inkscape:window-width="1267"
     inkscape:window-height="1040"
     inkscape:window-x="26"
     inkscape:window-y="0"
     inkscape:window-maximized="0" />
  <metadata
     id="metadata5">
    <rdf:RDF>
      <cc:Work
         rdf:about="">
        <dc:format>image/svg+xml</dc:format>
        <dc:type
           rdf:resource="http://purl.org/dc/dcmitype/StillImage" />
        <dc:title></dc:title>
      </cc:Work>
    </rdf:RDF>
  </metadata>
  <g
     inkscape:label="Layer 1"
     inkscape:groupmode="layer"
     id="layer1">
    <path
       stroke-width="0.079375"
       fill="#000000"
       stroke="none"
       stroke-dasharray="none"
       d="m 0,2.338199 m 0.375666,1.042797 h 1.729359 v 0.589407 c 0,0.252603 -0.200787,0.32385 -0.369189,0.32385 -0.148971,0 -0.213741,0.0842 -0.213741,0.181356 0,0.09068 0.03239,0.19431 0.174879,0.19431 h 1.988439 c 0.09068,0 0.187833,-0.06477 0.187833,-0.19431 0,-0.12954 -0.116586,-0.187833 -0.207264,-0.187833 -0.09068,0 -0.291465,-0.05829 -0.291465,-0.356235 V 3.380996 h 0.680085 c 0.09716,0 0.142494,-0.06477 0.142494,-0.174879 0,-0.110109 -0.03886,-0.174879 -0.142494,-0.174879 H 3.374517 V 1.029845 c 0,-0.07125 -0.0065,-0.155448 -0.110109,-0.155448 -0.0842,0 -0.12954,0.01943 -0.187833,0.0842 L 2.189226,2.027302 c -0.03239,0.05182 -0.0842,0.103632 -0.0842,0.220218 V 3.031237 H 0.848488 C 1.593343,2.396491 3.08953,0.278512 3.115438,0.17488 c 0,-0.01943 0.0065,-0.02591 0.0065,-0.04534 C 3.121938,0.05182 3.057168,0 2.985921,0 2.901721,0 2.519577,0.01295 2.351175,0.01295 2.182773,0.01295 1.761768,0 1.690521,0 1.606321,0 1.47678,0.02591 1.47678,0.174879 c 0,1.152906 -0.919734,2.454783 -1.198245,2.843403 l -0.05182,0.07772 c 0,0.0065 -0.01295,0.01943 -0.01295,0.02591 -0.01943,0.03886 -0.02591,0.07125 -0.02591,0.103632 0,0.09068 0.07125,0.155448 0.187833,0.155448"
       id="path10" />
  </g>
</svg>
