<?xml version="1.0" encoding="UTF-8" standalone="no"?>
<svg
   xmlns:dc="http://purl.org/dc/elements/1.1/"
   xmlns:cc="http://creativecommons.org/ns#"
   xmlns:rdf="http://www.w3.org/1999/02/22-rdf-syntax-ns#"
   xmlns:svg="http://www.w3.org/2000/svg"
   xmlns="http://www.w3.org/2000/svg"
   xmlns:sodipodi="http://sodipodi.sourceforge.net/DTD/sodipodi-0.dtd"
   xmlns:inkscape="http://www.inkscape.org/namespaces/inkscape"
   width="3.860292mm"
   height="4.6634412mm"
   viewBox="0 0 3.860292 4.6634412"
   version="1.1"
   id="svg8"
   inkscape:version="1.0.1 (3bc2e813f5, 2020-09-07)"
   sodipodi:docname="6.svg">
  <defs
     id="defs2" />
  <sodipodi:namedview
     id="base"
     pagecolor="#ffffff"
     bordercolor="#666666"
     borderopacity="1.0"
     inkscape:pageopacity="0.0"
     inkscape:pageshadow="2"
     inkscape:zoom="22.4"
     inkscape:cx="9.9853188"
     inkscape:cy="13.441816"
     inkscape:document-units="mm"
     inkscape:current-layer="layer1"
     inkscape:document-rotation="0"
     showgrid="false"
     inkscape:window-width="1267"
     inkscape:window-height="1040"
     inkscape:window-x="182"
     inkscape:window-y="0"
     inkscape:window-maximized="0" />
  <metadata
     id="metadata5">
    <rdf:RDF>
      <cc:Work
         rdf:about="">
        <dc:format>image/svg+xml</dc:format>
        <dc:type
           rdf:resource="http://purl.org/dc/dcmitype/StillImage" />
        <dc:title></dc:title>
      </cc:Work>
    </rdf:RDF>
  </metadata>
  <g
     inkscape:label="Layer 1"
     inkscape:groupmode="layer"
     id="layer1">
    <path
       stroke-width="0.079375"
       fill="#000000"
       stroke="none"
       stroke-dasharray="none"
       d="m 0,2.338195 m 0.187833,-0.02591 v 0.03239 c 0.0065,0.433959 0.0842,0.919734 0.284988,1.288923 0.382143,0.693039 0.84201,1.029843 1.625727,1.029843 0.421005,0 0.887349,-0.07125 1.224153,-0.336804 0.32385,-0.265557 0.537591,-0.680085 0.537591,-1.10109 0,-0.731901 -0.686562,-1.353693 -1.405509,-1.353693 -0.297942,0 -0.608838,0.110109 -0.848487,0.32385 -0.01943,0.01943 -0.03886,0.01943 -0.05829,0.01943 -0.05829,0 -0.0842,-0.07125 -0.0842,-0.220218 0.02591,-1.729359 0.576453,-1.774698 0.77724,-1.774698 0.181356,0 0.304419,0.04534 0.304419,0.142494 0,0.12954 -0.174879,0.239649 -0.233172,0.349758 -0.04534,0.0842 -0.06477,0.181356 -0.06477,0.272034 0,0.142494 0.04534,0.278511 0.142494,0.382143 0.06477,0.123063 0.330327,0.19431 0.45339,0.19431 0.395097,0 0.744855,-0.304419 0.744855,-0.705993 0,-0.03886 0,-0.06477 -0.0065,-0.103632 C 3.491082,0.155448 2.759183,0 2.253977,0 1.547984,0.0065 0.88733,0.349758 0.550526,0.984504 0.343262,1.379601 0.187814,1.871853 0.187814,2.312289 m 1.884807,0.0065 c 0.297942,0 0.550545,0.466344 0.550545,1.042797 0,0.58293 -0.252603,1.049274 -0.550545,1.049274 -0.297942,0 -0.544068,-0.466344 -0.544068,-1.049274 0,-0.576453 0.246126,-1.042797 0.544068,-1.042797"
       id="path10" />
  </g>
</svg>
