<?xml version="1.0" encoding="UTF-8" standalone="no"?>
<svg
   xmlns:dc="http://purl.org/dc/elements/1.1/"
   xmlns:cc="http://creativecommons.org/ns#"
   xmlns:rdf="http://www.w3.org/1999/02/22-rdf-syntax-ns#"
   xmlns:svg="http://www.w3.org/2000/svg"
   xmlns="http://www.w3.org/2000/svg"
   xmlns:sodipodi="http://sodipodi.sourceforge.net/DTD/sodipodi-0.dtd"
   xmlns:inkscape="http://www.inkscape.org/namespaces/inkscape"
   width="3.8797231mm"
   height="4.8318419mm"
   viewBox="0 0 3.8797231 4.8318419"
   version="1.1"
   id="svg8"
   inkscape:version="1.0.1 (3bc2e813f5, 2020-09-07)"
   sodipodi:docname="8.svg">
  <defs
     id="defs2" />
  <sodipodi:namedview
     id="base"
     pagecolor="#ffffff"
     bordercolor="#666666"
     borderopacity="1.0"
     inkscape:pageopacity="0.0"
     inkscape:pageshadow="2"
     inkscape:zoom="2.8"
     inkscape:cx="69.083411"
     inkscape:cy="63.49093"
     inkscape:document-units="mm"
     inkscape:current-layer="layer1"
     inkscape:document-rotation="0"
     showgrid="false"
     inkscape:window-width="1267"
     inkscape:window-height="1040"
     inkscape:window-x="104"
     inkscape:window-y="0"
     inkscape:window-maximized="0" />
  <metadata
     id="metadata5">
    <rdf:RDF>
      <cc:Work
         rdf:about="">
        <dc:format>image/svg+xml</dc:format>
        <dc:type
           rdf:resource="http://purl.org/dc/dcmitype/StillImage" />
        <dc:title></dc:title>
      </cc:Work>
    </rdf:RDF>
  </metadata>
  <g
     inkscape:label="Layer 1"
     inkscape:groupmode="layer"
     id="layer1">
    <path
       stroke-width="0.079375"
       fill="#000000"
       stroke="none"
       stroke-dasharray="none"
       d="m 0,2.415921 m 0.187833,1.23063 c 0,0.809625 0.835533,1.185291 1.761744,1.185291 0.932688,0 1.930146,-0.401574 1.930146,-1.658112 0,-0.563499 -0.32385,-0.867918 -0.764286,-1.094613 C 3.452241,1.865376 3.672459,1.560957 3.672459,1.094613 3.672459,0.142494 2.305812,0 2.053209,0 0.97155,0 0.233172,0.492252 0.233172,1.275969 c 0,0.6477 0.362712,0.990981 0.809625,1.243584 C 0.557022,2.752725 0.187833,3.057144 0.187833,3.646551 m 0.531114,-0.04534 c 0,-0.375666 0.32385,-0.718947 0.738378,-0.874395 0.680085,0.297942 1.366647,0.492252 1.366647,1.107567 0,0.369189 -0.284988,0.686562 -0.913257,0.686562 -0.621792,0 -1.191768,-0.317373 -1.191768,-0.919734 M 2.033778,0.272034 c 0.297942,0 1.088136,0.148971 1.088136,0.803148 0,0.369189 -0.181356,0.615315 -0.492252,0.790194 C 1.884807,1.606296 1.088136,1.444371 1.088136,0.861441 c 0,-0.395097 0.537591,-0.589407 0.945642,-0.589407"
       id="path10" />
  </g>
</svg>
