<?xml version="1.0" encoding="UTF-8" standalone="no"?>
<svg
   xmlns:dc="http://purl.org/dc/elements/1.1/"
   xmlns:cc="http://creativecommons.org/ns#"
   xmlns:rdf="http://www.w3.org/1999/02/22-rdf-syntax-ns#"
   xmlns:svg="http://www.w3.org/2000/svg"
   xmlns="http://www.w3.org/2000/svg"
   xmlns:sodipodi="http://sodipodi.sourceforge.net/DTD/sodipodi-0.dtd"
   xmlns:inkscape="http://www.inkscape.org/namespaces/inkscape"
   width="0.68765199mm"
   height="1.924916mm"
   viewBox="0 0 0.68765199 1.924916"
   version="1.1"
   id="svg27"
   inkscape:version="1.0.1 (3bc2e813f5, 2020-09-07)"
   sodipodi:docname="d4.svg">
  <defs
     id="defs21" />
  <sodipodi:namedview
     id="base"
     pagecolor="#ffffff"
     bordercolor="#666666"
     borderopacity="1.0"
     inkscape:pageopacity="0.0"
     inkscape:pageshadow="2"
     inkscape:zoom="0.35"
     inkscape:cx="400"
     inkscape:cy="560"
     inkscape:document-units="mm"
     inkscape:current-layer="layer1"
     inkscape:document-rotation="0"
     showgrid="false"
     inkscape:window-width="1267"
     inkscape:window-height="1040"
     inkscape:window-x="26"
     inkscape:window-y="0"
     inkscape:window-maximized="0" />
  <metadata
     id="metadata24">
    <rdf:RDF>
      <cc:Work
         rdf:about="">
        <dc:format>image/svg+xml</dc:format>
        <dc:type
           rdf:resource="http://purl.org/dc/dcmitype/StillImage" />
        <dc:title></dc:title>
      </cc:Work>
    </rdf:RDF>
  </metadata>
  <g
     inkscape:label="Layer 1"
     inkscape:groupmode="layer"
     id="layer1">
    <path
       d="m 5e-5,0.965272 m 0.02299,-0.07087 c 0.0096,0 0.06321,-0.0249 0.07087,-0.03064 0.0019,0 0.0057,-0.0038 0.0076,-0.0038 0.01915,0 0.03639,0.02873 0.03639,0.0498 v 0.273891 c 0,0.03065 -0.01341,0.05554 -0.03064,0.06321 -0.01532,0.0057 -0.0747,0.03064 -0.0747,0.03064 C 0.0134,1.283203 0,1.304313 0,1.321553 v 0.195362 c 0,0.01724 0.0077,0.0249 0.02299,0.0249 0.0019,0 0.0077,-0.0019 0.0096,-0.0019 0,0 0.03831,-0.01724 0.06321,-0.0249 0.0038,-0.0038 0.0057,-0.0038 0.0096,-0.0038 0.01916,0 0.03256,0.03064 0.03256,0.04405 v 0.339011 c 0,0.01724 0.01725,0.03064 0.03639,0.03064 0.02682,0 0.04597,-0.01341 0.04597,-0.03064 V 1.511212 c 0,-0.03639 0.01341,-0.05554 0.02873,-0.06129 l 0.166632,-0.06895 c 0.0038,0 0.0096,-0.0019 0.01148,-0.0019 0.02299,0 0.03639,0.03256 0.03639,0.0498 v 0.344757 c 0,0.01724 0.01725,0.03064 0.03639,0.03064 0.02873,0 0.04597,-0.01341 0.04597,-0.03064 v -0.39264 c 0,-0.02107 0.01148,-0.05363 0.03064,-0.06321 0.01916,-0.0077 0.07661,-0.03064 0.07661,-0.03064 0.01916,-0.0077 0.03448,-0.02873 0.03448,-0.04597 V 1.045807 c 0,-0.01341 -0.0096,-0.02298 -0.02106,-0.02298 -0.0038,0 -0.0077,0 -0.01341,0.0038 l -0.07087,0.02681 c -0.01725,0 -0.03639,-0.01724 -0.03639,-0.0498 V 0.746984 c 0,-0.01915 0.01341,-0.07087 0.03639,-0.08044 l 0.07087,-0.02681 c 0.01916,-0.0077 0.03448,-0.03064 0.03448,-0.04597 V 0.396486 c 0,-0.01341 -0.0096,-0.02107 -0.02106,-0.02107 -0.0038,0 -0.0077,0 -0.01341,0.0019 0,0 -0.05554,0.02299 -0.06895,0.0249 -0.01916,0 -0.03831,-0.01341 -0.03831,-0.03448 V 0.03064 C 0.545922,0.0134 0.528672,0 0.507612,0 0.480802,0 0.463562,0.01341 0.463562,0.03064 v 0.358165 c -0.0038,0.02681 -0.01148,0.06321 -0.03639,0.08044 -0.03256,0.01915 -0.12641,0.05746 -0.174294,0.06895 -0.02299,0 -0.03256,-0.03256 -0.03256,-0.05554 V 0.151304 c 0,-0.01532 -0.01916,-0.03064 -0.03831,-0.03064 -0.02681,0 -0.04405,0.01532 -0.04405,0.03064 v 0.373487 c 0,0.03831 -0.01725,0.06512 -0.03256,0.07278 -0.01722,0.0096 -0.07278,0.03064 -0.07278,0.03064 -0.01916,0.0057 -0.03256,0.02873 -0.03256,0.04405 v 0.197268 c 0,0.01532 0.0077,0.0249 0.02299,0.0249 m 0.189616,0.153225 c 0,-0.08427 0.0019,-0.181955 0.0077,-0.203023 0.0057,-0.04788 0.132157,-0.105343 0.20111,-0.105343 0.01915,0 0.03639,0.0057 0.04214,0.01724 0.0057,0.01341 0.01148,0.08236 0.01148,0.157056 0,0.0747 -0.0057,0.15131 -0.01148,0.176209 -0.01723,0.05554 -0.145564,0.109173 -0.210686,0.109173 -0.01532,0 -0.02873,-0.0038 -0.03256,-0.01341 -0.0057,-0.01149 -0.0077,-0.07087 -0.0077,-0.137903"
       id="path29"
       style="fill:#243041;stroke-width:0.264583" />
  </g>
</svg>
