<?xml version="1.0" encoding="UTF-8" standalone="no"?>
<svg
   xmlns:dc="http://purl.org/dc/elements/1.1/"
   xmlns:cc="http://creativecommons.org/ns#"
   xmlns:rdf="http://www.w3.org/1999/02/22-rdf-syntax-ns#"
   xmlns:svg="http://www.w3.org/2000/svg"
   xmlns="http://www.w3.org/2000/svg"
   xmlns:sodipodi="http://sodipodi.sourceforge.net/DTD/sodipodi-0.dtd"
   xmlns:inkscape="http://www.inkscape.org/namespaces/inkscape"
   width="0.74081481mm"
   height="2.0589745mm"
   viewBox="0 0 0.74081481 2.0589745"
   version="1.1"
   id="svg65"
   inkscape:version="1.0.1 (3bc2e813f5, 2020-09-07)"
   sodipodi:docname="d8.svg">
  <defs
     id="defs59" />
  <sodipodi:namedview
     id="base"
     pagecolor="#ffffff"
     bordercolor="#666666"
     borderopacity="1.0"
     inkscape:pageopacity="0.0"
     inkscape:pageshadow="2"
     inkscape:zoom="0.35"
     inkscape:cx="400"
     inkscape:cy="560"
     inkscape:document-units="mm"
     inkscape:current-layer="layer1"
     inkscape:document-rotation="0"
     showgrid="false"
     inkscape:window-width="1267"
     inkscape:window-height="1040"
     inkscape:window-x="182"
     inkscape:window-y="0"
     inkscape:window-maximized="0" />
  <metadata
     id="metadata62">
    <rdf:RDF>
      <cc:Work
         rdf:about="">
        <dc:format>image/svg+xml</dc:format>
        <dc:type
           rdf:resource="http://purl.org/dc/dcmitype/StillImage" />
        <dc:title></dc:title>
      </cc:Work>
    </rdf:RDF>
  </metadata>
  <g
     inkscape:label="Layer 1"
     inkscape:groupmode="layer"
     id="layer1">
    <path
       d="M 0.0015687,1.0285254 M 0.4784828,0.00383 C 0.4823228,0 0.4861528,0 0.4938018,0 c 0.017251,0 0.030647,0.00766 0.036393,0.0249 l 0.00185,0.00575 0.00384,0.1953625 v 0.1972778 l 0.047884,-0.013406 c 0.028728,-0.00575 0.049797,-0.00957 0.063204,-0.00957 0.019156,0 0.022992,0.00766 0.030647,0.022984 0.00384,0.0019 0.00384,0.049798 0.00384,0.095766 0,0.047883 0,0.093851 -0.00384,0.097681 -0.00767,0.017238 -0.011483,0.019153 -0.065122,0.03256 -0.067035,0.015322 -0.076613,0.019153 -0.076613,0.021069 0,0 0,0.0249 0,0.059375 0,0.00957 0,0.022984 0,0.038306 v 0.099597 l 0.019156,-0.00575 0.078528,-0.021069 c 0.042137,-0.00766 0.061291,-0.013406 0.070866,-0.013406 0.00958,0 0.015319,0.0019 0.021061,0.00766 0.013414,0.011491 0.015319,0.013406 0.015319,0.076613 0,0.011491 0,0.0249 0,0.040222 v 0.086189 l -0.00185,0.00575 c -0.00384,0.00766 -0.013414,0.019153 -0.021061,0.021069 -0.00384,0 -0.051715,0.013406 -0.1589723,0.040222 -0.013414,0.0019 -0.022992,0.00575 -0.022992,0.00575 0,0 0,0.030645 0,0.076613 0,0.00766 0,0.015322 0,0.022984 v 0.095766 l 0.047884,-0.00958 c 0.03256,-0.00766 0.049797,-0.013406 0.063204,-0.013406 0.011483,0 0.019156,0.00575 0.022992,0.013406 0.011483,0.00958 0.011483,0.00383 0.011483,0.078528 v 0.030645 0.0249 c 0,0.074697 0,0.070867 -0.011483,0.080443 -0.00767,0.011491 -0.00384,0.011491 -0.09385,0.03256 -0.017224,0.00575 -0.036391,0.00766 -0.038306,0.00957 h -0.00185 l -0.00384,0.1991931 v 0.2011085 l -0.00185,0.00766 c -0.00574,0.015322 -0.021061,0.022984 -0.036393,0.022984 -0.015319,0 -0.028729,-0.00766 -0.036391,-0.022984 l -0.00384,-0.00766 V 1.7640132 1.5743966 h -0.00185 l -0.044053,0.011491 -0.080444,0.019153 c -0.021061,0.00766 -0.042137,0.00957 -0.042137,0.013406 -0.00185,0 -0.00185,0.00957 -0.00185,0.2049391 v 0.2068549 l -0.00384,0.00575 c -0.00767,0.015322 -0.022992,0.022984 -0.036391,0.022984 -0.015319,0 -0.030647,-0.00766 -0.038306,-0.022984 l -0.00384,-0.00575 V 1.8329593 c 0,-0.1800399 0,-0.1972778 -0.00185,-0.1972778 0,0 0,0 0,0 -0.021061,0.00957 -0.09385,0.0249 -0.1015127,0.0249 -0.015319,0 -0.028728,-0.00766 -0.036391,-0.0249 -0.00384,-0.00383 -0.00384,-0.00383 -0.00384,-0.095766 v -0.091935 l 0.00574,-0.00575 c 0.00767,-0.019153 0.00767,-0.019153 0.1149192,-0.045968 l 0.022992,-0.00383 v -0.099597 c 0,-0.09002 0,-0.097681 -0.00185,-0.097681 0,0 0,0 0,0 0,0 -0.013414,0.0019 -0.028731,0.00766 l -0.074697,0.019153 c -0.03256,0.00766 -0.049797,0.00958 -0.061291,0.00958 -0.00765,0 -0.013414,-0.0019 -0.021061,-0.00766 C 0.001931,1.2143075 0,1.2104805 0,1.1472745 c 0,-0.011491 0.00185,-0.0249 0.00185,-0.040222 v -0.086189 l 0.00185,-0.00383 c 0.00185,-0.00958 0.00958,-0.017238 0.017224,-0.019153 0.00384,-0.00383 0.053628,-0.015322 0.1551411,-0.040222 l 0.024897,-0.00766 v -0.099597 c 0,-0.09002 0,-0.097681 -0.00185,-0.097681 0,0 0,0 0,0 -0.021061,0.00575 -0.09385,0.0249 -0.1015127,0.0249 -0.015319,0 -0.028728,-0.011491 -0.036391,-0.0249 -0.00384,-0.00575 -0.00384,-0.00766 -0.00384,-0.097681 v -0.09002 l 0.00574,-0.00575 c 0.00767,-0.019153 0.00767,-0.019153 0.1149191,-0.045968 l 0.022992,-0.00766 V 0.306447 0.1072538 l 0.00384,-0.00766 c 0.00767,-0.013406 0.022992,-0.0249 0.038306,-0.0249 0.00574,0 0.011483,0.00383 0.015319,0.00575 0.00767,0.0019 0.015319,0.011491 0.021061,0.019153 l 0.00384,0.00766 V 0.294958 0.4864899 l 0.00958,-0.0019 c 0.00574,-0.00191 0.036391,-0.011491 0.072782,-0.019153 l 0.076613,-0.017238 0.011483,-0.00383 V 0.2375054 0.030651 l 0.00384,-0.00575 c 0.00384,-0.00766 0.00958,-0.017238 0.021061,-0.021069 m -0.024897,0.7833654 c 0,-0.053629 0,-0.097681 -0.00185,-0.097681 v 0 c 0,0 -0.019156,0.00575 -0.042137,0.00958 l -0.082359,0.021069 c -0.024897,0.00575 -0.044053,0.011491 -0.044053,0.011491 0,0 0,0.0249 0,0.059375 0,0.013406 0,0.0249 0,0.042137 v 0.095766 l 0.011483,-0.00383 0.1436476,-0.034476 0.015319,-0.00383 v -0.099597 m 0,0.4424386 c 0,-0.076613 0,-0.097681 -0.00185,-0.097681 v 0 c 0,0 -0.00185,0 -0.00767,0.00191 -0.00767,0 -0.051713,0.013406 -0.1130035,0.026814 l -0.044053,0.013406 h -0.00384 V 1.27177 1.371367 l 0.00958,-0.00383 c 0.00574,0 0.036391,-0.00766 0.072782,-0.019153 l 0.076613,-0.017238 0.011483,-0.00383 V 1.229635"
       id="path67"
       style="fill:#243041;stroke-width:0.264583" />
  </g>
</svg>
