<?xml version="1.0" encoding="UTF-8" standalone="no"?>
<svg
   xmlns:dc="http://purl.org/dc/elements/1.1/"
   xmlns:cc="http://creativecommons.org/ns#"
   xmlns:rdf="http://www.w3.org/1999/02/22-rdf-syntax-ns#"
   xmlns:svg="http://www.w3.org/2000/svg"
   xmlns="http://www.w3.org/2000/svg"
   xmlns:xlink="http://www.w3.org/1999/xlink"
   xmlns:sodipodi="http://sodipodi.sourceforge.net/DTD/sodipodi-0.dtd"
   xmlns:inkscape="http://www.inkscape.org/namespaces/inkscape"
   width="5.9346833mm"
   height="4.6828132mm"
   viewBox="0 0 5.9346833 4.6828132"
   version="1.1"
   id="svg8"
   inkscape:version="1.0.1 (3bc2e813f5, 2020-09-07)"
   sodipodi:docname="h_body.svg">
  <defs
     id="defs2">
    <symbol
       id="ms_note_parts_a">
      <title
         id="title437">note parts A</title>
      <path
         sodipodi:nodetypes="ssssssssssss"
         inkscape:connector-curvature="0"
         d="M 3.6054982,4.5550667e-4 C 3.0715691,0.01050967 2.5022641,0.12364551 1.9629109,0.35145186 0.39390532,1.0142331 -0.32753406,2.3790333 0.14117542,3.4886159 0.60991115,4.5982255 2.0913132,5.0325126 3.6603199,4.3697313 5.2293255,3.7069236 6.2918128,2.1980319 5.823077,1.0884487 5.5154989,0.36034186 4.6248585,-0.01494324 3.6054982,4.5550667e-4 Z M 4.3574705,0.82693457 c 0.4186502,0 0.7199842,0.11210396 0.8549746,0.31469543 C 5.5427245,1.6375385 4.8118924,2.54244 3.5800982,3.1628345 2.348303,3.7832295 1.0820072,3.8841151 0.75172782,3.3883388 0.42144844,2.8924303 1.1522541,1.9875294 2.3840747,1.3671344 3.0647164,1.0243402 3.7914474,0.8254529 4.3574705,0.82693457 Z"
         id="path439"
         style="stroke-width:0.264583" />
    </symbol>
  </defs>
  <sodipodi:namedview
     id="base"
     pagecolor="#ffffff"
     bordercolor="#666666"
     borderopacity="1.0"
     inkscape:pageopacity="0.0"
     inkscape:pageshadow="2"
     inkscape:zoom="5.6"
     inkscape:cx="33.210305"
     inkscape:cy="50.015242"
     inkscape:document-units="mm"
     inkscape:current-layer="layer1"
     inkscape:document-rotation="0"
     showgrid="false"
     inkscape:window-width="1920"
     inkscape:window-height="1017"
     inkscape:window-x="-8"
     inkscape:window-y="-8"
     inkscape:window-maximized="1" />
  <metadata
     id="metadata5">
    <rdf:RDF>
      <cc:Work
         rdf:about="">
        <dc:format>image/svg+xml</dc:format>
        <dc:type
           rdf:resource="http://purl.org/dc/dcmitype/StillImage" />
        <dc:title></dc:title>
      </cc:Work>
    </rdf:RDF>
  </metadata>
  <g
     inkscape:label="Layer 1"
     inkscape:groupmode="layer"
     id="layer1">
    <use
       xlink:href="#ms_note_parts_a"
       id="use993"
       x="0"
       y="0"
       width="100%"
       height="100%" />
  </g>
</svg>
