<?xml version="1.0" encoding="UTF-8" standalone="no"?>
<svg
   xmlns:dc="http://purl.org/dc/elements/1.1/"
   xmlns:cc="http://creativecommons.org/ns#"
   xmlns:rdf="http://www.w3.org/1999/02/22-rdf-syntax-ns#"
   xmlns:svg="http://www.w3.org/2000/svg"
   xmlns="http://www.w3.org/2000/svg"
   xmlns:xlink="http://www.w3.org/1999/xlink"
   xmlns:sodipodi="http://sodipodi.sourceforge.net/DTD/sodipodi-0.dtd"
   xmlns:inkscape="http://www.inkscape.org/namespaces/inkscape"
   width="5.9316616mm"
   height="18.92383mm"
   viewBox="0 0 5.9316616 18.92383"
   version="1.1"
   id="svg8"
   inkscape:version="1.0.1 (3bc2e813f5, 2020-09-07)"
   sodipodi:docname="nd2.svg">
  <defs
     id="defs2">
    <symbol
       id="ms_note_2">
      <title
         id="title110">note 2</title>
      <path
         d="m 5.4343379,0 v 14.801173 c -0.4309533,-0.378704 -1.0960364,-0.57185 -1.8288264,-0.559652 -0.5339556,0.009 -1.1029429,0.123057 -1.6422696,0.350869 -1.56900559,0.662808 -2.29081538,2.027661 -1.82210601,3.13727 0.46873584,1.109689 1.95016441,1.543818 3.51914431,0.881089 1.4950017,-0.631481 2.5269825,-2.030253 2.2158854,-3.120734 V 0.11523662 Z M 4.3574044,15.06782 c 0.4186502,0 0.7202752,0.112077 0.8552392,0.314722 0.3302793,0.495855 -0.4006586,1.40118 -1.6324527,2.021575 C 2.3483959,18.024512 1.0821794,18.125212 0.75192652,17.62941 0.42162069,17.133528 1.1525851,16.228679 2.3844057,15.608363 3.0650471,15.265569 3.7913813,15.066947 4.3574044,15.06782 Z"
         inkscape:connector-curvature="0"
         sodipodi:nodetypes="ccsssscccssssss"
         id="path112"
         style="fill:#243041;stroke-width:0.264583" />
    </symbol>
    <symbol
       id="ms_note_4">
      <title
         id="title115">note 4</title>
      <path
         d="M 5.4338987,0 V 14.799606 C 4.6886204,14.145847 3.24172,14.052648 1.9627768,14.592914 0.39379763,15.255708 -0.32753591,16.620572 0.1412,17.730179 c 0.4687093,1.109583 1.9501378,1.54387 3.5191702,0.881089 1.4954779,-0.631693 2.5275381,-2.031624 2.2153562,-3.12229 V 0.11523927 Z"
         inkscape:connector-curvature="0"
         sodipodi:nodetypes="ccsssccc"
         id="path117"
         style="fill:#243041;stroke-width:0.264583" />
    </symbol>
  </defs>
  <sodipodi:namedview
     id="base"
     pagecolor="#ffffff"
     bordercolor="#666666"
     borderopacity="1.0"
     inkscape:pageopacity="0.0"
     inkscape:pageshadow="2"
     inkscape:zoom="0.98994949"
     inkscape:cx="410.4647"
     inkscape:cy="269.54798"
     inkscape:document-units="mm"
     inkscape:current-layer="layer1"
     inkscape:document-rotation="0"
     showgrid="false"
     inkscape:window-width="1920"
     inkscape:window-height="1017"
     inkscape:window-x="-8"
     inkscape:window-y="-8"
     inkscape:window-maximized="1" />
  <metadata
     id="metadata5">
    <rdf:RDF>
      <cc:Work
         rdf:about="">
        <dc:format>image/svg+xml</dc:format>
        <dc:type
           rdf:resource="http://purl.org/dc/dcmitype/StillImage" />
        <dc:title></dc:title>
      </cc:Work>
    </rdf:RDF>
  </metadata>
  <g
     inkscape:label="Layer 1"
     inkscape:groupmode="layer"
     id="layer1">
    <use
       xlink:href="#ms_note_2"
       id="use1030"
       x="0"
       y="0"
       width="100%"
       height="100%" />
  </g>
</svg>
