<?xml version="1.0" encoding="UTF-8"?>
<svg width="10.561mm" height="13.796mm" version="1.1" viewBox="0 0 10.561 13.796" xmlns="http://www.w3.org/2000/svg" xmlns:xlink="http://www.w3.org/1999/xlink">
 <defs>
  <symbol id="ms_numeric_1">
   <title>Numeric 1</title>
   <path d="m1.457 6.8683c7.937e-4 0.8305-0.23929 0.9892-0.68839 1.0134l-0.7116 0.037994c-0.071993 0.18719-0.079984 0.36528 0 0.49869h4.7806c0.031009-0.1342 0.031009-0.32578 0-0.508l-0.7606-0.037994c-0.44069-0.02196-0.65839-0.18849-0.65839-1.0066v-6.8658h-1.1183c-0.24279 0.499-0.95222 0.72636-2.0902 0.75991 0.003545 0.07112-0.020928 0.17944-0.012118 0.25424 0.14984 0 0.50759-0.00529 0.78274 0.014023 0.25305 0.017727 0.47035 0.097922 0.47106 0.7883z" fill="#243041" stroke-width=".26458"/>
  </symbol>
  <symbol id="ms_dot_of_note">
   <title>Dot of note</title>
   <path d="m1.7286 0.8643c0 0.4773-0.38695 0.86429-0.86429 0.86429-0.47736 0-0.86431-0.387-0.86431-0.86429 0-0.4774 0.38695-0.8643 0.86431-0.8643 0.47733 0 0.86429 0.3869 0.86429 0.8643z" fill="#243041" stroke-width=".26458"/>
  </symbol>
 </defs>
 <g transform="translate(0 -.61934)">
  <path d="m0 4.8193v4.5548h0.76654v-3.8742h9.7948v0-0.68058z" fill="#243041" fill-rule="evenodd" stroke-width=".24449"/>
  <use transform="matrix(.34289 0 0 .34289 1.0659 5.9017)" width="100%" height="100%" xlink:href="#ms_numeric_1"/>
  <use transform="matrix(.30302 0 0 .30302 2.9209 8.2583)" width="100%" height="100%" xlink:href="#ms_dot_of_note"/>
 </g>
</svg>
