<?xml version="1.0" encoding="UTF-8"?>
<svg width="10.561mm" height="13.796mm" version="1.1" viewBox="0 0 10.561 13.796" xmlns="http://www.w3.org/2000/svg" xmlns:xlink="http://www.w3.org/1999/xlink">
 <defs>
  <symbol id="ms_dot_of_note">
   <title>Dot of note</title>
   <path d="m1.7286 0.8643c0 0.4773-0.38695 0.86429-0.86429 0.86429-0.47736 0-0.86431-0.387-0.86431-0.86429 0-0.4774 0.38695-0.8643 0.86431-0.8643 0.47733 0 0.86429 0.3869 0.86429 0.8643z" fill="#243041" stroke-width=".26458"/>
  </symbol>
  <symbol id="ms_numeric_2">
   <title>Numeric 2</title>
   <path d="m2.2655 5.3614c-0.8659 0.73811-1.9528 2.0319-2.2472 3.1307-0.11451 0.4273 0.33539 0.59791 0.6146 0.15359 1.0247-1.6304 1.9216-0.79499 3.2652-0.01905 0.56409 0.3257 1.1411 0.4272 1.6902 0 0.34578-0.2689 0.92199-1.402 0.97959-1.6325 0.095991-0.3842-0.1338-0.58171-0.3457-0.24971-0.57618 0.90271-0.69149 0.9411-1.575 0.2689-1.6164-1.2298-2.4103-0.45479-3.1692 0.038021 0.4418-0.63392 1.5173-1.6134 2.6698-2.2472 3.4825-1.9154 1.776-3.8679 1.3637-4.1295-1.5634-0.9919-3.7734-0.93229-4.9746 0.46101-0.56748 0.65818-0.42249 2.0167 0.53779 2.0167 1.2868 0 1.0948-1.5942 0.53782-1.7862 0.1728-0.32652 0.71059-0.8259 1.5941-0.8259 0.48027 0 0.92157 0.73909 0.99888 1.7286 0.095991 1.2264-1.1855 2.4491-1.94 3.0924z" fill="#243041" stroke-width=".26458"/>
  </symbol>
 </defs>
 <g transform="translate(0 -.61934)">
  <path d="m0 4.8193v4.5548h0.76654v-3.8742h9.7948v0-0.68058z" fill="#243041" fill-rule="evenodd" stroke-width=".24449"/>
  <use transform="matrix(.30302 0 0 .30302 3.4501 8.2583)" width="100%" height="100%" xlink:href="#ms_dot_of_note"/>
 </g>
 <use transform="matrix(.32258 0 0 .32258 1.0765 5.2878)" width="100%" height="100%" xlink:href="#ms_numeric_2"/>
</svg>
