<?xml version="1.0" encoding="UTF-8" standalone="no"?>
<svg
   xmlns:dc="http://purl.org/dc/elements/1.1/"
   xmlns:cc="http://creativecommons.org/ns#"
   xmlns:rdf="http://www.w3.org/1999/02/22-rdf-syntax-ns#"
   xmlns:svg="http://www.w3.org/2000/svg"
   xmlns="http://www.w3.org/2000/svg"
   xmlns:sodipodi="http://sodipodi.sourceforge.net/DTD/sodipodi-0.dtd"
   xmlns:inkscape="http://www.inkscape.org/namespaces/inkscape"
   width="5.5593128mm"
   height="9.0601521mm"
   viewBox="0 0 5.5593128 9.0601521"
   version="1.1"
   id="svg8"
   sodipodi:docname="r8.svg"
   inkscape:version="1.0.1 (3bc2e813f5, 2020-09-07)">
  <defs
     id="defs2">
    <symbol
       id="ms_rest_8">
      <title
         id="title185">rest 8</title>
      <path
         sodipodi:nodetypes="sscsssssscsss"
         inkscape:connector-curvature="0"
         d="M 5.2916667e-5,1.5387796 C -7.9375e-5,2.3889467 0.68923958,3.0668463 1.5393458,3.078054 2.5074298,3.0905159 3.4907802,2.695919 4.1111223,2.1740416 3.8082537,4.1973579 2.5385448,7.6497074 2.0153842,8.8668304 1.8936494,9.1499029 3.052736,9.1033812 3.1058115,8.8487329 3.427095,7.3074133 4.5307779,3.1205911 4.961255,2.1843471 5.141251,1.7928722 5.4113906,1.0431621 5.5386552,0.81245075 5.6067854,0.68892737 5.4991,0.54156504 5.3226494,0.74238644 5.0388308,1.0654586 4.7470748,1.280631 4.5738521,1.3776775 4.0850873,1.651471 3.4657506,1.9405335 3.0282356,1.9191261 3.0606206,1.7948884 3.0779773,1.6670655 3.0779773,1.5386791 3.0779773,0.68892737 2.3890287,1.4819056e-4 1.5392665,2.3897048e-8 0.68931896,-1.4814277e-4 1.5875e-4,0.688721 0,1.5386791 Z"
         id="path187"
         style="fill:#243041;stroke-width:0.264583" />
    </symbol>
  </defs>
  <sodipodi:namedview
     id="base"
     pagecolor="#ffffff"
     bordercolor="#666666"
     borderopacity="1.0"
     inkscape:pageopacity="0.0"
     inkscape:pageshadow="2"
     inkscape:zoom="5.6"
     inkscape:cx="40.226583"
     inkscape:cy="39.493139"
     inkscape:document-units="mm"
     inkscape:current-layer="use980"
     inkscape:document-rotation="0"
     showgrid="false"
     inkscape:window-width="1920"
     inkscape:window-height="1017"
     inkscape:window-x="-8"
     inkscape:window-y="-8"
     inkscape:window-maximized="1" />
  <metadata
     id="metadata5">
    <rdf:RDF>
      <cc:Work
         rdf:about="">
        <dc:format>image/svg+xml</dc:format>
        <dc:type
           rdf:resource="http://purl.org/dc/dcmitype/StillImage" />
        <dc:title></dc:title>
      </cc:Work>
    </rdf:RDF>
  </metadata>
  <g
     inkscape:label="Layer 1"
     inkscape:groupmode="layer"
     id="layer1">
    <g
       id="use980">
      <title
         id="title994">rest 8</title>
      <path
         d="M 5.2916667e-5,1.5387796 C -7.9375e-5,2.3889467 0.68923958,3.0668463 1.5393458,3.078054 2.5074298,3.0905159 3.4907802,2.695919 4.1111223,2.1740416 3.8082537,4.1973579 2.5385448,7.6497074 2.0153842,8.8668304 1.8936494,9.1499029 3.052736,9.1033812 3.1058115,8.8487329 3.427095,7.3074133 4.5307779,3.1205911 4.961255,2.1843471 5.141251,1.7928722 5.4113906,1.0431621 5.5386552,0.81245075 5.6067854,0.68892737 5.4991,0.54156504 5.3226494,0.74238644 5.0388308,1.0654586 4.7470748,1.280631 4.5738521,1.3776775 4.0850873,1.651471 3.4657506,1.9405335 3.0282356,1.9191261 3.0606206,1.7948884 3.0779773,1.6670655 3.0779773,1.5386791 3.0779773,0.68892737 2.3890287,1.4819056e-4 1.5392665,2.3897048e-8 0.68931896,-1.4814277e-4 1.5875e-4,0.688721 0,1.5386791 Z"
         id="path996"
         style="fill:#243041;stroke-width:0.264583" />
    </g>
  </g>
</svg>
