<?xml version="1.0" encoding="UTF-8" standalone="no"?>
<svg
   xmlns:dc="http://purl.org/dc/elements/1.1/"
   xmlns:cc="http://creativecommons.org/ns#"
   xmlns:rdf="http://www.w3.org/1999/02/22-rdf-syntax-ns#"
   xmlns:svg="http://www.w3.org/2000/svg"
   xmlns="http://www.w3.org/2000/svg"
   width="8.3193035mm"
   height="18.210743mm"
   viewBox="0 0 8.3193035 18.210743"
   version="1.1"
   id="svg8">
  <defs
     id="defs2">
    <symbol
       id="ms_rest_32">
      <title
         id="title195">rest 32</title>
      <path
         d="M 8.2992383,0.78942671 C 8.3654371,0.66936937 8.2607415,0.52620333 8.0892915,0.72137323 7.8135162,1.0353014 7.5300152,1.2443566 7.3616873,1.3386567 6.8867602,1.6047006 6.2849125,1.885614 5.8597271,1.8648124 5.8912125,1.744091 5.9080929,1.619885 5.9080929,1.4951313 5.9080929,0.66948315 5.2387765,2.0108712e-4 4.4131442,0 h -1.588e-4 c -0.8258439,-5.820455e-5 -1.495425,0.66928206 -1.4955573,1.4951313 0,0.8261112 0.6696604,1.4848258 1.4957161,1.4957161 C 5.3537908,3.0029388 6.3094129,2.6195258 6.9122131,2.1124175 6.8052421,2.8271126 6.1324596,4.8667908 5.7232285,6.1153622 5.2994983,6.3336355 4.8230367,6.5254637 4.4690506,6.5081467 4.500536,6.387428 4.51739,6.263222 4.51739,6.1384683 4.51739,5.3127619 3.8479677,4.6434719 3.022256,4.643329 l 1.059e-4,-5.82e-5 C 2.196465,4.6431279 1.5268046,5.3125026 1.5266458,6.1384101 1.5265135,6.9645186 2.1963063,7.6232359 3.0223619,7.6341261 3.963035,7.6462176 4.9185777,7.2628046 5.5213779,6.7556936 5.4071044,7.5190244 4.6552379,9.5904659 4.2085948,10.934433 3.7809487,11.156135 3.3009152,11.354329 2.9425106,11.336782 2.9739696,11.216034 2.99085,11.091886 2.99085,10.967104 2.99085,10.141368 2.3213748,9.4721098 1.4956896,9.4719061 0.66976625,9.4717923 1.3231987e-4,10.141138 2.8213606e-8,10.967104 -1.587218e-4,11.79327 0.66963396,12.451958 1.4956896,12.462849 2.4046392,12.47494 3.3628542,12.115583 3.9705227,11.633973 3.3175046,13.534028 2.0317883,17.335434 1.7548754,17.979628 1.6366067,18.254676 2.720684,18.293464 2.7722777,18.04606 3.0844331,16.548335 8.1755985,1.0135791 8.2992383,0.78942671 Z"
         id="path197"
         style="fill:#243041;stroke-width:0.264583" />
    </symbol>
    <symbol
       id="ms_rest_w">
      <title
         id="title170">rest W</title>
      <path
         d="M 0.18245667,0 H 6.9058631 C 7.006934,0 7.0883198,0.07839075 7.0883198,0.17542933 V 4.6601062 c 0,0.097308 -0.081412,0.1754876 -0.1824567,0.1754876 H 0.18245667 C 0.08138583,4.8355938 0,4.7571977 0,4.6601062 V 0.17548225 C 0,0.078232 0.08138583,5.2916667e-5 0.18245667,5.2916667e-5 Z"
         id="path172"
         style="fill:#243041;stroke-width:0.264583" />
    </symbol>
    <symbol
       id="ms_rest_1_2">
      <title
         id="title175">rest 1_2</title>
      <path
         d="M 0.18245667,0 H 6.9058631 C 7.006934,0 7.0883198,0.03860271 7.0883198,0.08638646 V 2.2947577 c 0,0.047916 -0.081412,0.086413 -0.1824567,0.086413 H 0.18245667 C 0.08138583,2.3811706 0,2.3425679 0,2.2947577 V 0.08641292 C 0,0.03852333 0.08138583,2.6458333e-5 0.18245667,2.6458333e-5 Z"
         id="path177"
         style="fill:#243041;stroke-width:0.264583" />
    </symbol>
  </defs>
  <metadata
     id="metadata5">
    <rdf:RDF>
      <cc:Work
         rdf:about="">
        <dc:format>image/svg+xml</dc:format>
        <dc:type
           rdf:resource="http://purl.org/dc/dcmitype/StillImage" />
        <dc:title></dc:title>
      </cc:Work>
    </rdf:RDF>
  </metadata>
  <g
     id="layer1">
    <g
       id="use1030">
      <title
         id="title1044">rest 1_2</title>
      <path
         d="M 0.213177 9.356 L 8.0686 9.356 C 8.18669 9.356 8.28178 9.3946 8.28178 9.44238 L 8.28178 11.6506 C 8.28178 11.6985 8.18666 11.737 8.0686 11.737 L 0.213177 11.737 C 0.0950888 11.737 0 11.6984 0 11.6506 L 0 9.44241 C 0 9.39452 0.0950888 9.35603 0.213177 9.35603 Z"
         id="path1046"
         style="fill:#243041;stroke-width:0.285981" />
    </g>
  </g>
</svg>
