<?xml version="1.0" encoding="UTF-8" standalone="no"?>
<svg
   xmlns:dc="http://purl.org/dc/elements/1.1/"
   xmlns:cc="http://creativecommons.org/ns#"
   xmlns:rdf="http://www.w3.org/1999/02/22-rdf-syntax-ns#"
   xmlns:svg="http://www.w3.org/2000/svg"
   xmlns="http://www.w3.org/2000/svg"
   xmlns:sodipodi="http://sodipodi.sourceforge.net/DTD/sodipodi-0.dtd"
   xmlns:inkscape="http://www.inkscape.org/namespaces/inkscape"
   width="6.5892115mm"
   height="13.549019mm"
   viewBox="0 0 6.5892115 13.549019"
   version="1.1"
   id="svg8"
   sodipodi:docname="r16.svg"
   inkscape:version="1.0.1 (3bc2e813f5, 2020-09-07)">
  <defs
     id="defs2">
    <symbol
       id="ms_rest_16">
      <title
         id="title190">rest 16</title>
      <path
         d="M 2.7446287,2.3181641e-8 C 1.9299237,-1.4285182e-4 1.2693121,0.66016717 1.2691798,1.4748907 1.2690475,2.2898126 1.929765,2.9396081 2.7446287,2.9503529 3.672549,2.9622856 4.61518,2.5840584 5.209831,2.083816 5.0970921,2.8368069 4.5922142,4.7903739 4.15163,6.1161374 3.7297519,6.3348394 3.2562271,6.5303506 2.9026908,6.5130415 c 0.031036,-0.1191127 0.047678,-0.2415804 0.047678,-0.3646752 0,-0.8145489 -0.6604,-1.4747504 -1.4749197,-1.4749489 C 0.6607175,4.6733037 1.5876987e-4,5.3335872 1.9862527e-8,6.1483663 -1.322718e-4,6.9633465 0.66058521,7.6131129 1.475449,7.6238576 2.3720954,7.6357903 3.3173194,7.2812936 3.9167594,6.8062052 3.2726048,8.6805294 1.6980429,12.688506 1.4249135,13.323977 c -0.1166812,0.271339 0.9256713,0.302348 1.0035911,0.06554 L 6.5780973,0.7788275 C 6.6203512,0.65038287 6.540156,0.5191416 6.3710344,0.71166831 6.0990162,1.0213446 5.8193517,1.2275979 5.6532992,1.3206201 5.1848015,1.5830629 4.5911558,1.8601399 4.1717383,1.8396215 4.2028004,1.7205378 4.2194162,1.5980119 4.2194162,1.4749489 4.2194162,0.66042117 3.5590427,1.9846068e-4 2.7445229,5.5585677e-5 Z"
         inkscape:connector-curvature="0"
         sodipodi:nodetypes="csscccsssscssssscssc"
         id="path192"
         style="fill:#243041;stroke-width:0.264583" />
    </symbol>
  </defs>
  <sodipodi:namedview
     id="base"
     pagecolor="#ffffff"
     bordercolor="#666666"
     borderopacity="1.0"
     inkscape:pageopacity="0.0"
     inkscape:pageshadow="2"
     inkscape:zoom="3.959798"
     inkscape:cx="35.564549"
     inkscape:cy="55.281527"
     inkscape:document-units="mm"
     inkscape:current-layer="use980"
     inkscape:document-rotation="0"
     showgrid="false"
     inkscape:window-width="1920"
     inkscape:window-height="1017"
     inkscape:window-x="-8"
     inkscape:window-y="-8"
     inkscape:window-maximized="1" />
  <metadata
     id="metadata5">
    <rdf:RDF>
      <cc:Work
         rdf:about="">
        <dc:format>image/svg+xml</dc:format>
        <dc:type
           rdf:resource="http://purl.org/dc/dcmitype/StillImage" />
        <dc:title></dc:title>
      </cc:Work>
    </rdf:RDF>
  </metadata>
  <g
     inkscape:label="Layer 1"
     inkscape:groupmode="layer"
     id="layer1">
    <g
       id="use980">
      <title
         id="title994">rest 16</title>
      <path
         d="M 2.7446287,2.3181641e-8 C 1.9299237,-1.4285182e-4 1.2693121,0.66016717 1.2691798,1.4748907 1.2690475,2.2898126 1.929765,2.9396081 2.7446287,2.9503529 3.672549,2.9622856 4.61518,2.5840584 5.209831,2.083816 5.0970921,2.8368069 4.5922142,4.7903739 4.15163,6.1161374 3.7297519,6.3348394 3.2562271,6.5303506 2.9026908,6.5130415 c 0.031036,-0.1191127 0.047678,-0.2415804 0.047678,-0.3646752 0,-0.8145489 -0.6604,-1.4747504 -1.4749197,-1.4749489 C 0.6607175,4.6733037 1.5876987e-4,5.3335872 1.9862527e-8,6.1483663 -1.322718e-4,6.9633465 0.66058521,7.6131129 1.475449,7.6238576 2.3720954,7.6357903 3.3173194,7.2812936 3.9167594,6.8062052 3.2726048,8.6805294 1.6980429,12.688506 1.4249135,13.323977 c -0.1166812,0.271339 0.9256713,0.302348 1.0035911,0.06554 L 6.5780973,0.7788275 C 6.6203512,0.65038287 6.540156,0.5191416 6.3710344,0.71166831 6.0990162,1.0213446 5.8193517,1.2275979 5.6532992,1.3206201 5.1848015,1.5830629 4.5911558,1.8601399 4.1717383,1.8396215 4.2028004,1.7205378 4.2194162,1.5980119 4.2194162,1.4749489 4.2194162,0.66042117 3.5590427,1.9846068e-4 2.7445229,5.5585677e-5 Z"
         id="path996"
         style="fill:#243041;stroke-width:0.264583" />
    </g>
  </g>
</svg>
