<?xml version="1.0" encoding="UTF-8" standalone="no"?>
<svg
   xmlns:dc="http://purl.org/dc/elements/1.1/"
   xmlns:cc="http://creativecommons.org/ns#"
   xmlns:rdf="http://www.w3.org/1999/02/22-rdf-syntax-ns#"
   xmlns:svg="http://www.w3.org/2000/svg"
   xmlns="http://www.w3.org/2000/svg"
   xmlns:sodipodi="http://sodipodi.sourceforge.net/DTD/sodipodi-0.dtd"
   xmlns:inkscape="http://www.inkscape.org/namespaces/inkscape"
   width="5.2155113mm"
   height="14.604161mm"
   viewBox="0 0 5.2155113 14.604161"
   version="1.1"
   id="svg8"
   sodipodi:docname="r4.svg"
   inkscape:version="1.0.1 (3bc2e813f5, 2020-09-07)">
  <defs
     id="defs2">
    <symbol
       id="ms_rest_4">
      <title
         id="title180">rest 4</title>
      <path
         sodipodi:nodetypes="sssssssssscsssczs"
         inkscape:connector-curvature="0"
         d="M 1.3697683,0.29281623 C 1.9768283,1.0639523 3.5706262,2.9841693 3.9621301,4.2305473 4.1019889,4.6758066 3.9007468,5.3833025 3.3264951,6.023192 2.8574418,6.5458075 2.6328627,7.195222 2.8628657,8.0534616 c 0.2634986,0.9835039 1.8375578,2.7727934 2.1985288,3.2649794 0.3789098,0.516795 0.0037,0.726416 -0.5250392,0.328208 C 3.712628,11.026672 2.6113785,10.742157 1.894437,11.287019 1.1894283,11.82293 1.1967308,12.386011 2.2201127,14.158521 2.444347,14.546919 2.2517568,14.75024 1.9460572,14.482286 1.204827,13.833189 0.06537238,12.15622 0.00795779,11.498911 -0.14613554,9.7337854 1.9768283,9.2347283 2.9776685,9.8417909 2.2401416,8.9713461 1.3190212,8.0076569 1.0252014,7.7253491 0.64092058,7.3559061 0.53537829,6.5984199 0.89396808,6.1501867 1.287721,5.6579717 1.762701,4.6614874 1.9112116,4.0993007 2.1408964,3.2297185 1.7471435,2.1304374 1.4682197,1.4577184 1.3176189,1.1968895 1.08677,0.84761837 0.86115975,0.456887 0.63554954,0.06612385 0.93704225,-0.2569668 1.3697683,0.29281623 Z"
         id="path182"
         style="fill:#243041;stroke-width:0.264583" />
    </symbol>
  </defs>
  <sodipodi:namedview
     id="base"
     pagecolor="#ffffff"
     bordercolor="#666666"
     borderopacity="1.0"
     inkscape:pageopacity="0.0"
     inkscape:pageshadow="2"
     inkscape:zoom="5.6"
     inkscape:cx="43.935477"
     inkscape:cy="38.234256"
     inkscape:document-units="mm"
     inkscape:current-layer="use980"
     inkscape:document-rotation="0"
     showgrid="false"
     inkscape:window-width="1920"
     inkscape:window-height="1017"
     inkscape:window-x="-8"
     inkscape:window-y="-8"
     inkscape:window-maximized="1" />
  <metadata
     id="metadata5">
    <rdf:RDF>
      <cc:Work
         rdf:about="">
        <dc:format>image/svg+xml</dc:format>
        <dc:type
           rdf:resource="http://purl.org/dc/dcmitype/StillImage" />
        <dc:title></dc:title>
      </cc:Work>
    </rdf:RDF>
  </metadata>
  <g
     inkscape:label="Layer 1"
     inkscape:groupmode="layer"
     id="layer1">
    <g
       id="use980">
      <title
         id="title994">rest 4</title>
      <path
         d="M 1.3697683,0.29281623 C 1.9768283,1.0639523 3.5706262,2.9841693 3.9621301,4.2305473 4.1019889,4.6758066 3.9007468,5.3833025 3.3264951,6.023192 2.8574418,6.5458075 2.6328627,7.195222 2.8628657,8.0534616 c 0.2634986,0.9835039 1.8375578,2.7727934 2.1985288,3.2649794 0.3789098,0.516795 0.0037,0.726416 -0.5250392,0.328208 C 3.712628,11.026672 2.6113785,10.742157 1.894437,11.287019 1.1894283,11.82293 1.1967308,12.386011 2.2201127,14.158521 2.444347,14.546919 2.2517568,14.75024 1.9460572,14.482286 1.204827,13.833189 0.06537238,12.15622 0.00795779,11.498911 -0.14613554,9.7337854 1.9768283,9.2347283 2.9776685,9.8417909 2.2401416,8.9713461 1.3190212,8.0076569 1.0252014,7.7253491 0.64092058,7.3559061 0.53537829,6.5984199 0.89396808,6.1501867 1.287721,5.6579717 1.762701,4.6614874 1.9112116,4.0993007 2.1408964,3.2297185 1.7471435,2.1304374 1.4682197,1.4577184 1.3176189,1.1968895 1.08677,0.84761837 0.86115975,0.456887 0.63554954,0.06612385 0.93704225,-0.2569668 1.3697683,0.29281623 Z"
         id="path996"
         style="fill:#243041;stroke-width:0.264583" />
    </g>
  </g>
</svg>
