<?xml version="1.0" encoding="UTF-8" standalone="no"?>
<svg
   xmlns:dc="http://purl.org/dc/elements/1.1/"
   xmlns:cc="http://creativecommons.org/ns#"
   xmlns:rdf="http://www.w3.org/1999/02/22-rdf-syntax-ns#"
   xmlns:svg="http://www.w3.org/2000/svg"
   xmlns="http://www.w3.org/2000/svg"
   xmlns:xlink="http://www.w3.org/1999/xlink"
   width="10.561373mm"
   height="13.796179mm"
   viewBox="0 0 10.561373 13.796179"
   version="1.1"
   id="svg8">
  <defs
     id="defs2">
    <symbol
       id="ms_note_2">
      <title
         id="title110">note 2</title>
      <path
         d="m 5.4343379,0 v 14.801173 c -0.4309533,-0.378704 -1.0960364,-0.57185 -1.8288264,-0.559652 -0.5339556,0.009 -1.1029429,0.123057 -1.6422696,0.350869 -1.56900559,0.662808 -2.29081538,2.027661 -1.82210601,3.13727 0.46873584,1.109689 1.95016441,1.543818 3.51914431,0.881089 1.4950017,-0.631481 2.5269825,-2.030253 2.2158854,-3.120734 V 0.11523662 Z M 4.3574044,15.06782 c 0.4186502,0 0.7202752,0.112077 0.8552392,0.314722 0.3302793,0.495855 -0.4006586,1.40118 -1.6324527,2.021575 C 2.3483959,18.024512 1.0821794,18.125212 0.75192652,17.62941 0.42162069,17.133528 1.1525851,16.228679 2.3844057,15.608363 3.0650471,15.265569 3.7913813,15.066947 4.3574044,15.06782 Z"
         id="path112"
         style="fill:#243041;stroke-width:0.264583" />
    </symbol>
    <symbol
       id="ms_fermata">
      <title
         id="title272">Fermata</title>
      <path
         d="m 7.1321348,5.6381385 c 0,0.6880755 -0.5577681,1.2458436 -1.2458436,1.2458436 -0.6880754,0 -1.24587,-0.5577681 -1.24587,-1.2458436 0,-0.6880225 0.5577946,-1.24587 1.24587,-1.24587 0.6880755,0 1.2458436,0.5577946 1.2458436,1.24587 z M 0.33242118,6.8736369 c -0.0319881,0.2968889 -0.3355975,0.3150923 -0.33239604271,0 C 0.03902472,3.0436873 2.7280129,0 5.8863706,0 c 3.15849,0 5.7521744,3.0461744 5.8863704,6.8741396 0.01005,0.2988998 -0.308398,0.3205162 -0.334407,-0.024077 -0.2082,-2.7558735 -2.6107757,-4.9324683 -5.5564084,-4.9327329 -2.9456327,0 -5.24920234,2.1983171 -5.54950442,4.9563072 z"
         id="path274"
         style="fill:#243041;stroke-width:0.264583" />
    </symbol>
    <symbol
       id="ms_dot_of_note">
      <title
         id="title160">Dot of note</title>
      <path
         d="M 1.7286023,0.86429585 C 1.7286023,1.341591 1.3416492,1.7285891 0.86431437,1.7285891 0.38695312,1.7285891 0,1.341591 0,0.86429585 0,0.38689756 0.38695312,0 0.86431437,0 1.3416492,0 1.7286023,0.38689756 1.7286023,0.86429585 Z"
         id="path162"
         style="fill:#243041;stroke-width:0.264583" />
    </symbol>
    <symbol
       id="ms_repeat_sign_a">
      <title
         id="title60">Repeat sign A</title>
      <path
         d="M 4.917649,10.702369 A 0.67222979,0.67222979 0 0 0 5.5898759,11.374596 0.67222979,0.67222979 0 0 0 6.2621107,10.702369 0.67222979,0.67222979 0 0 0 5.5898759,10.030142 0.67222979,0.67222979 0 0 0 4.917649,10.702369 Z m 0,-4.6472207 A 0.67222979,0.67222979 0 0 0 5.5898759,6.7273752 0.67222979,0.67222979 0 0 0 6.2621107,6.0551483 0.67222979,0.67222979 0 0 0 5.5898759,5.382895 0.67222979,0.67222979 0 0 0 4.917649,6.0551483 Z M 0,19.049868 H 2.0271317 V 0 H 0 Z m 3.1750026,0 H 3.6146502 V 0 H 3.1750026 Z"
         id="path62"
         style="fill:#243041;stroke-width:0.264583" />
    </symbol>
    <symbol
       id="ms_repeat_sign_b">
      <title
         id="title65">Repeat sign B</title>
      <path
         d="M 2.6473838,0 V 19.049471 H 3.0871504 V 0 Z m 1.5875,0 V 19.049471 H 6.2621504 V 0 Z M 0.6723089,5.382604 A 0.67222979,0.67222979 0 0 0 0,6.0549102 0.67222979,0.67222979 0 0 0 0.6723089,6.7272429 0.67222979,0.67222979 0 0 0 1.3446204,6.0549102 0.67222979,0.67222979 0 0 0 0.6723089,5.382604 Z m 0,4.647274 A 0.67222979,0.67222979 0 0 0 0,10.702184 0.67222979,0.67222979 0 0 0 0.6723089,11.37449 0.67222979,0.67222979 0 0 0 1.3446204,10.702184 0.67222979,0.67222979 0 0 0 0.6723089,10.029878 Z"
         id="path67"
         style="fill:#243041;stroke-width:0.264583" />
    </symbol>
    <symbol
       id="ms_segno">
      <title
         id="title287">Segno</title>
      <path
         d="M 0.8245475,5.4857438 C 1.5228887,6.3630413 2.6948077,7.1000514 3.8599004,7.7039602 L 0,13.616077 H 1.0927556 L 4.6850035,8.1135405 C 5.4198573,8.462481 6.1076152,8.7582534 6.6078629,8.9919201 8.1299315,9.7029376 8.8570329,11.594714 8.2470625,12.293372 7.1257848,13.577713 6.6500904,12.478448 6.4483721,11.587517 6.189689,10.444406 4.3308323,10.563286 4.3308323,11.974893 c 0,1.161204 1.3861785,1.821286 2.4365744,1.821286 2.3846102,0 3.8955393,-3.267255 2.1578623,-5.484881 C 8.2503962,7.4499444 7.1172387,6.7266661 5.978525,6.1322082 L 9.894279,0.13411716 H 8.8014175 L 5.1538981,5.7212653 C 4.3842781,5.3548068 3.662045,5.0480092 3.1419535,4.8050185 1.6198585,4.0941016 0.90408125,2.1893792 1.502754,1.5035792 2.5634685,0.28862311 3.099726,1.3185984 3.3014444,2.2094214 3.5601275,3.3525063 5.4185079,3.2337296 5.4185079,1.8220476 5.4185079,0.73346707 4.200181,-0.02340253 3.082581,5.5284688e-4 0.21097875,0.06188591 -0.79523167,3.450934 0.8245475,5.4857438 Z M 9.4826667,4.1001289 c -0.5957623,0 -1.0786534,0.4829942 -1.0786534,1.0787406 0,0.5957438 0.4828911,1.0786348 1.0786534,1.0786348 0.5957093,0 1.0787063,-0.482891 1.0787063,-1.0786348 0,-0.5957464 -0.482997,-1.0787406 -1.0787063,-1.0787406 z M 1.0786533,7.6742607 C 0.48289104,7.6742607 0,8.157255 0,8.7529987 c 0,0.5957438 0.48289104,1.0786349 1.0786533,1.0786349 0.5957359,0 1.0786269,-0.4828911 1.0786269,-1.0786349 0,-0.5957437 -0.482891,-1.078738 -1.0786269,-1.078738 z"
         id="path289"
         style="fill:#243041;stroke-width:0.264583" />
    </symbol>
  </defs>
  <metadata
     id="metadata5">
    <rdf:RDF>
      <cc:Work
         rdf:about="">
        <dc:format>image/svg+xml</dc:format>
        <dc:type
           rdf:resource="http://purl.org/dc/dcmitype/StillImage" />
        <dc:title></dc:title>
      </cc:Work>
    </rdf:RDF>
  </metadata>
  <g
     id="layer1">
    <use
       xlink:href="#ms_segno"
       id="use1125"
       x="0"
       y="0"
       width="100%"
       height="100%" />
  </g>
</svg>
