<?xml version="1.0" encoding="UTF-8" standalone="no"?>
<svg
   xmlns:dc="http://purl.org/dc/elements/1.1/"
   xmlns:cc="http://creativecommons.org/ns#"
   xmlns:rdf="http://www.w3.org/1999/02/22-rdf-syntax-ns#"
   xmlns:svg="http://www.w3.org/2000/svg"
   xmlns="http://www.w3.org/2000/svg"
   xmlns:xlink="http://www.w3.org/1999/xlink"
   width="10.561373mm"
   height="13.796179mm"
   viewBox="0 0 10.561373 13.796179"
   version="1.1"
   id="svg8">
  <defs
     id="defs2">
    <symbol
       id="ms_volta_bracket">
      <title
         id="title232">Volta bracket</title>
      <path
         d="M 0,14.333315 H 0.96890417 V 0.4397666 H 85.722301 V 0 L 0,0.02460625 Z"
         id="path234"
         style="stroke-width:0.264583;fill:#243041;" />
    </symbol>
    <symbol
       id="ms_scale_bar">
      <title
         id="title165">Scale bar</title>
      <path
         d="M 0,0 H 10.186379 V 0.43968458 H 0 Z"
         id="path167"
         style="stroke-width:0.264583;fill:#243041;" />
    </symbol>
    <symbol
       id="ms_segno">
      <title
         id="title287">Segno</title>
      <path
         d="M 0.8245475,5.4857438 C 1.5228887,6.3630413 2.6948077,7.1000514 3.8599004,7.7039602 L 0,13.616077 H 1.0927556 L 4.6850035,8.1135405 C 5.4198573,8.462481 6.1076152,8.7582534 6.6078629,8.9919201 8.1299315,9.7029376 8.8570329,11.594714 8.2470625,12.293372 7.1257848,13.577713 6.6500904,12.478448 6.4483721,11.587517 6.189689,10.444406 4.3308323,10.563286 4.3308323,11.974893 c 0,1.161204 1.3861785,1.821286 2.4365744,1.821286 2.3846102,0 3.8955393,-3.267255 2.1578623,-5.484881 C 8.2503962,7.4499444 7.1172387,6.7266661 5.978525,6.1322082 L 9.894279,0.13411716 H 8.8014175 L 5.1538981,5.7212653 C 4.3842781,5.3548068 3.662045,5.0480092 3.1419535,4.8050185 1.6198585,4.0941016 0.90408125,2.1893792 1.502754,1.5035792 2.5634685,0.28862311 3.099726,1.3185984 3.3014444,2.2094214 3.5601275,3.3525063 5.4185079,3.2337296 5.4185079,1.8220476 5.4185079,0.73346707 4.200181,-0.02340253 3.082581,5.5284688e-4 0.21097875,0.06188591 -0.79523167,3.450934 0.8245475,5.4857438 Z M 9.4826667,4.1001289 c -0.5957623,0 -1.0786534,0.4829942 -1.0786534,1.0787406 0,0.5957438 0.4828911,1.0786348 1.0786534,1.0786348 0.5957093,0 1.0787063,-0.482891 1.0787063,-1.0786348 0,-0.5957464 -0.482997,-1.0787406 -1.0787063,-1.0787406 z M 1.0786533,7.6742607 C 0.48289104,7.6742607 0,8.157255 0,8.7529987 c 0,0.5957438 0.48289104,1.0786349 1.0786533,1.0786349 0.5957359,0 1.0786269,-0.4828911 1.0786269,-1.0786349 0,-0.5957437 -0.482891,-1.078738 -1.0786269,-1.078738 z"
         id="path289"
         style="stroke-width:0.264583;fill:#243041;" />
    </symbol>
    <symbol
       id="ms_stopped_note">
      <title
         id="title257">Stopped note</title>
      <path
         d="M 2.38125,0 V 2.38125 H 0 v 0.5291667 h 2.38125 v 2.38125 h 0.5291667 v -2.38125 h 2.38125 V 2.38125 h -2.38125 V 0 Z"
         id="path259"
         style="stroke-width:0.264583;fill:#243041;" />
    </symbol>
    <symbol
       id="ms_numeric_1">
      <title
         id="title392">Numeric 1</title>
      <path
         d="M 1.4570205,6.8682923 C 1.4578142,7.6987929 1.2177313,7.85749 0.76862755,7.8816994 l -0.71159696,0.037994 c -0.07199312,0.1871927 -0.07998354,0.3652838 0,0.4986867 H 4.837602 c 0.031009,-0.1341967 0.031009,-0.3257815 0,-0.508 L 4.0770043,7.872386 C 3.6363143,7.8504256 3.4186151,7.6838969 3.4186151,6.8658052 V 0 H 2.3003534 C 2.0575638,0.49900417 1.3481285,0.72636062 0.21016084,0.75990979 c 0.003545,0.07112 -0.0209285,0.17944042 -0.0121179,0.25423811 0.1498442,0 0.50758733,-0.00529 0.78273812,0.014023 0.25305274,0.017727 0.47035244,0.097922 0.47106154,0.7882996 z"
         id="path394"
         style="stroke-width:0.264583;fill:#243041;" />
    </symbol>
    <symbol
       id="ms_dot_of_note">
      <title
         id="title160">Dot of note</title>
      <path
         d="M 1.7286023,0.86429585 C 1.7286023,1.341591 1.3416492,1.7285891 0.86431437,1.7285891 0.38695312,1.7285891 0,1.341591 0,0.86429585 0,0.38689756 0.38695312,0 0.86431437,0 1.3416492,0 1.7286023,0.38689756 1.7286023,0.86429585 Z"
         id="path162"
         style="stroke-width:0.264583;fill:#243041;" />
    </symbol>
    <symbol
       id="ms_numeric_2">
      <title
         id="title397">Numeric 2</title>
      <path
         d="M 2.2654657,5.3613659 C 1.3995638,6.099474 0.31268194,7.39326 0.01828012,8.4920481 -0.09623155,8.9193502 0.3536659,9.0899536 0.63288069,8.6456388 1.657559,7.0152498 2.5544436,7.8506452 3.8980507,8.6265888 c 0.5640917,0.3257021 1.141095,0.4271962 1.6901848,0 C 5.9340194,8.3576927 6.510229,7.2246146 6.5678288,6.9941096 6.6638196,6.6099081 6.434029,6.4123967 6.2221242,6.7443959 5.6459411,7.6471013 5.5306357,7.6854923 4.647139,7.0132919 3.0307465,5.7835086 2.2368642,6.5584996 1.4779599,7.0513125 1.9197611,6.4173973 2.9952394,5.4379098 4.147738,4.8041269 7.6302103,2.8887288 5.9237271,0.93623553 5.5114269,0.67464199 3.9480569,-0.31725447 1.7380717,-0.25764397 0.5368634,1.135652 -0.03061488,1.7938295 0.11437678,3.1523331 1.0746555,3.1523331 c 1.286801,0 1.0947929,-1.5941944 0.5378185,-1.7861761 0.1727994,-0.3265223 0.7105915,-0.82589688 1.5940881,-0.82589688 0.4802717,0 0.9215703,0.73908708 0.9988815,1.72857578 0.095991,1.2263972 -1.1854921,2.4490897 -1.9399779,3.0923712 z"
         id="path399"
         style="stroke-width:0.264583;fill:#243041;" />
    </symbol>
  </defs>
  <metadata
     id="metadata5">
    <rdf:RDF>
      <cc:Work
         rdf:about="">
        <dc:format>image/svg+xml</dc:format>
        <dc:type
           rdf:resource="http://purl.org/dc/dcmitype/StillImage" />
        <dc:title></dc:title>
      </cc:Work>
    </rdf:RDF>
  </metadata>
  <g
     id="layer1">
    <path
       id="rect1069"
       style="fill:#243041;fill-rule:evenodd;stroke-width:0.244491"
       d="M 0,4.8193441 V 5.4999225 9.3741048 H 0.76653843 V 5.4999225 H 9.7948345 V 9.3741048 H 10.561373 V 5.4999225 4.8193441 Z" />
    <use
       xlink:href="#ms_dot_of_note"
       id="use1156"
       x="0"
       y="0"
       width="100%"
       height="100%"
       transform="matrix(0.3030159,0,0,0.3030159,3.2,8.2583204)" />
    <use
       xlink:href="#ms_numeric_2"
       id="use1181"
       x="0"
       y="0"
       width="100%"
       height="100%"
       transform="matrix(0.32464701,0,0,0.32464701,0.95,5.8971229)" />
  </g>
</svg>
