<?xml version="1.0" encoding="UTF-8" standalone="no"?>
<svg
   xmlns:dc="http://purl.org/dc/elements/1.1/"
   xmlns:cc="http://creativecommons.org/ns#"
   xmlns:rdf="http://www.w3.org/1999/02/22-rdf-syntax-ns#"
   xmlns:svg="http://www.w3.org/2000/svg"
   xmlns="http://www.w3.org/2000/svg"
   xmlns:sodipodi="http://sodipodi.sourceforge.net/DTD/sodipodi-0.dtd"
   xmlns:inkscape="http://www.inkscape.org/namespaces/inkscape"
   width="3.970377mm"
   height="4.767066mm"
   viewBox="0 0 3.970377 4.767066"
   version="1.1"
   id="svg8"
   inkscape:version="1.0.1 (3bc2e813f5, 2020-09-07)"
   sodipodi:docname="2.svg">
  <defs
     id="defs2" />
  <sodipodi:namedview
     id="base"
     pagecolor="#ffffff"
     bordercolor="#666666"
     borderopacity="1.0"
     inkscape:pageopacity="0.0"
     inkscape:pageshadow="2"
     inkscape:zoom="11.2"
     inkscape:cx="2.8321351"
     inkscape:cy="21.696647"
     inkscape:document-units="mm"
     inkscape:current-layer="layer1"
     inkscape:document-rotation="0"
     showgrid="false"
     inkscape:window-width="1267"
     inkscape:window-height="1040"
     inkscape:window-x="104"
     inkscape:window-y="0"
     inkscape:window-maximized="0" />
  <metadata
     id="metadata5">
    <rdf:RDF>
      <cc:Work
         rdf:about="">
        <dc:format>image/svg+xml</dc:format>
        <dc:type
           rdf:resource="http://purl.org/dc/dcmitype/StillImage" />
        <dc:title></dc:title>
      </cc:Work>
    </rdf:RDF>
  </metadata>
  <g
     inkscape:label="Layer 1"
     inkscape:groupmode="layer"
     id="layer1">
    <path
       stroke-width="0.079375"
       fill="#000000"
       stroke="none"
       stroke-dasharray="none"
       d="m 0,2.370576 m 0.187833,-1.10109 c 0,0.12954 0.02591,0.25908 0.0842,0.401574 0.136017,0.291465 0.427482,0.511683 0.764286,0.511683 0.569976,0 0.654177,-0.589407 0.654177,-0.822579 0,-0.557022 -0.6477,-0.58293 -0.6477,-0.770763 0.01943,-0.12954 0.187833,-0.356235 0.738378,-0.356235 0.829056,0 0.84201,0.628269 0.84201,0.893826 0,0.854964 -0.699516,1.496187 -1.373124,1.904238 -0.511683,0.330327 -0.874395,0.783717 -1.03632,1.373124 0,0.142494 0.04534,0.362712 0.233172,0.362712 0.207264,0 0.317373,-0.569976 0.867918,-0.569976 0.375666,0 0.511683,0.505206 1.340739,0.505206 0.401574,0 1.120521,-0.03886 1.269492,-1.483233 0,-0.110109 -0.04534,-0.12954 -0.110109,-0.12954 -0.07772,0 -0.103632,0.03886 -0.123063,0.09068 0,0.01295 -0.0065,0.01943 -0.0065,0.03238 -0.09716,0.220218 -0.168402,0.401574 -0.362712,0.401574 -0.05182,0 -0.09716,-0.01295 -0.161925,-0.03238 C 3.037689,3.536437 2.972919,3.529957 2.882241,3.478145 2.694408,3.406895 2.253972,3.257927 1.871829,3.257927 c -0.116586,0 -0.239649,0.01943 -0.343281,0.05182 C 1.735812,2.97942 2.526006,2.694432 2.73327,2.642616 3.387447,2.46126 3.970377,2.195703 3.970377,1.418463 3.970377,0.427482 3.005304,0 2.137386,0 1.483209,0 0.906756,0.05829 0.446889,0.589407 0.291441,0.783717 0.187809,1.016889 0.187809,1.269492"
       id="path10" />
  </g>
</svg>
