<?xml version="1.0" encoding="UTF-8" standalone="no"?>
<svg
   xmlns:dc="http://purl.org/dc/elements/1.1/"
   xmlns:cc="http://creativecommons.org/ns#"
   xmlns:rdf="http://www.w3.org/1999/02/22-rdf-syntax-ns#"
   xmlns:svg="http://www.w3.org/2000/svg"
   xmlns="http://www.w3.org/2000/svg"
   xmlns:sodipodi="http://sodipodi.sourceforge.net/DTD/sodipodi-0.dtd"
   xmlns:inkscape="http://www.inkscape.org/namespaces/inkscape"
   width="3.575304mm"
   height="4.6310611mm"
   viewBox="0 0 3.575304 4.6310611"
   version="1.1"
   id="svg8"
   inkscape:version="1.0.1 (3bc2e813f5, 2020-09-07)"
   sodipodi:docname="5.svg">
  <defs
     id="defs2" />
  <sodipodi:namedview
     id="base"
     pagecolor="#ffffff"
     bordercolor="#666666"
     borderopacity="1.0"
     inkscape:pageopacity="0.0"
     inkscape:pageshadow="2"
     inkscape:zoom="15.839192"
     inkscape:cx="15.455083"
     inkscape:cy="8.9229412"
     inkscape:document-units="mm"
     inkscape:current-layer="layer1"
     inkscape:document-rotation="0"
     showgrid="false"
     inkscape:window-width="1267"
     inkscape:window-height="1040"
     inkscape:window-x="104"
     inkscape:window-y="0"
     inkscape:window-maximized="0" />
  <metadata
     id="metadata5">
    <rdf:RDF>
      <cc:Work
         rdf:about="">
        <dc:format>image/svg+xml</dc:format>
        <dc:type
           rdf:resource="http://purl.org/dc/dcmitype/StillImage" />
        <dc:title></dc:title>
      </cc:Work>
    </rdf:RDF>
  </metadata>
  <g
     inkscape:label="Layer 1"
     inkscape:groupmode="layer"
     id="layer1">
    <path
       stroke-width="0.079375"
       fill="#000000"
       stroke="none"
       stroke-dasharray="none"
       d="m 0,2.292864 m 0.187833,1.185291 c 0,0.770763 0.505206,1.152906 1.651635,1.152906 1.114044,0 1.735836,-0.686562 1.735836,-1.528572 0,-0.848487 -0.693039,-1.535049 -1.541526,-1.535049 -0.544068,0 -0.945642,0.09068 -1.243584,0.265557 -0.01295,0.01295 -0.03238,0.01295 -0.04534,0.01295 -0.03886,0 -0.03886,-0.03886 -0.03886,-0.06477 v -0.03886 c 0,0 0.03886,-0.524637 0.05182,-0.608838 0.0065,-0.07125 0.05182,-0.116586 0.136017,-0.116586 h 0.03886 c 0.09068,0.01943 0.531114,0.0842 0.913257,0.0842 1.2954,0 1.340739,-0.751332 1.340739,-0.900303 0,-0.116586 -0.02591,-0.19431 -0.12954,-0.19431 -0.116586,0 -0.848487,0.0842 -1.146429,0.0842 C 1.612776,0.09068 0.809628,0.01943 0.65418,0 0.485778,0 0.440439,0.0842 0.427485,0.155448 l -0.103632,2.07264 v 0.01943 c 0,0.123063 0.09716,0.136017 0.187833,0.136017 0.09716,0 0.103632,-0.0842 0.207264,-0.181356 0.09068,-0.09715 0.317373,-0.310896 0.634746,-0.310896 0.317373,0 0.958596,0.174879 0.958596,1.211199 0,1.029843 -0.550545,1.159383 -0.790194,1.159383 -0.07772,0 -0.148971,0 -0.213741,-0.02591 -0.05182,-0.03239 -0.103632,-0.07125 -0.116586,-0.136017 0,-0.06477 0.06477,-0.09715 0.116586,-0.12954 0.213741,-0.12954 0.349758,-0.362712 0.349758,-0.621792 0,-0.414528 -0.32385,-0.731901 -0.725424,-0.731901 -0.505206,0 -0.705993,0.369189 -0.738378,0.693039 -0.0065,0.05829 -0.0065,0.110109 -0.0065,0.168402"
       id="path10" />
  </g>
</svg>
