<?xml version="1.0" encoding="UTF-8" standalone="no"?>
<svg
   xmlns:dc="http://purl.org/dc/elements/1.1/"
   xmlns:cc="http://creativecommons.org/ns#"
   xmlns:rdf="http://www.w3.org/1999/02/22-rdf-syntax-ns#"
   xmlns:svg="http://www.w3.org/2000/svg"
   xmlns="http://www.w3.org/2000/svg"
   xmlns:sodipodi="http://sodipodi.sourceforge.net/DTD/sodipodi-0.dtd"
   xmlns:inkscape="http://www.inkscape.org/namespaces/inkscape"
   width="3.925061mm"
   height="4.6569562mm"
   viewBox="0 0 3.925061 4.6569562"
   version="1.1"
   id="svg8"
   inkscape:version="1.0.1 (3bc2e813f5, 2020-09-07)"
   sodipodi:docname="7.svg">
  <defs
     id="defs2" />
  <sodipodi:namedview
     id="base"
     pagecolor="#ffffff"
     bordercolor="#666666"
     borderopacity="1.0"
     inkscape:pageopacity="0.0"
     inkscape:pageshadow="2"
     inkscape:zoom="2.8"
     inkscape:cx="10.057978"
     inkscape:cy="88.491677"
     inkscape:document-units="mm"
     inkscape:current-layer="layer1"
     inkscape:document-rotation="0"
     showgrid="false"
     inkscape:window-width="1267"
     inkscape:window-height="1040"
     inkscape:window-x="26"
     inkscape:window-y="0"
     inkscape:window-maximized="0" />
  <metadata
     id="metadata5">
    <rdf:RDF>
      <cc:Work
         rdf:about="">
        <dc:format>image/svg+xml</dc:format>
        <dc:type
           rdf:resource="http://purl.org/dc/dcmitype/StillImage" />
        <dc:title></dc:title>
      </cc:Work>
    </rdf:RDF>
  </metadata>
  <g
     inkscape:label="Layer 1"
     inkscape:groupmode="layer"
     id="layer1">
    <path
       stroke-width="0.079375"
       fill="#000000"
       stroke="none"
       stroke-dasharray="none"
       d="M 0,2.325235 M 0.187833,1.865368 c 0,0 0.0065,0.148971 0.103632,0.148971 0.07125,0 0.09716,-0.07772 0.136017,-0.181356 0.09716,-0.233172 0.213741,-0.77724 0.634746,-0.77724 0.375666,0 0.822579,0.699516 1.36017,0.699516 0.265557,0 0.395097,-0.136017 0.466344,-0.19431 0.03239,-0.01943 0.06477,-0.03886 0.0842,-0.03886 0.03886,0 0.05829,0.02591 0.06477,0.0842 0,0.25908 -0.71247,0.783717 -1.275969,1.444371 C 1.405508,3.465188 1.12052,4.002779 1.12052,4.365491 c 0,0.200787 0,0.291465 0.174879,0.291465 0.168402,0 0.375666,-0.0842 0.608838,-0.0842 0.233172,0 0.667131,0.0842 0.764286,0.0842 0.09068,0 0.148971,-0.07772 0.148971,-0.343281 0,-1.560957 1.107567,-2.895219 1.107567,-3.853815 V 0.421 c 0,-0.252603 0,-0.369189 -0.155448,-0.369189 -0.01295,0 -0.161925,0.03239 -0.19431,0.09716 -0.07125,0.116586 -0.200787,0.6477 -0.433959,0.6477 C 2.908172,0.796671 2.474213,0 1.696973,0 1.159382,0 1.016888,0.220218 0.887348,0.336804 0.757808,0.459867 0.699515,0.498729 0.634745,0.505206 c -0.07772,0 -0.19431,-0.12954 -0.246126,-0.220218 -0.01295,-0.03886 -0.06477,-0.06477 -0.110109,-0.06477 -0.04534,0 -0.09068,0.02591 -0.09068,0.110109"
       id="path10" />
  </g>
</svg>
