<?xml version="1.0" encoding="UTF-8" standalone="no"?>
<svg
   xmlns:dc="http://purl.org/dc/elements/1.1/"
   xmlns:cc="http://creativecommons.org/ns#"
   xmlns:rdf="http://www.w3.org/1999/02/22-rdf-syntax-ns#"
   xmlns:svg="http://www.w3.org/2000/svg"
   xmlns="http://www.w3.org/2000/svg"
   xmlns:sodipodi="http://sodipodi.sourceforge.net/DTD/sodipodi-0.dtd"
   xmlns:inkscape="http://www.inkscape.org/namespaces/inkscape"
   width="0.622482mm"
   height="1.6930749mm"
   viewBox="0 0 0.622482 1.6930749"
   version="1.1"
   id="svg8"
   inkscape:version="1.0.1 (3bc2e813f5, 2020-09-07)"
   sodipodi:docname="b5.svg">
  <defs
     id="defs2" />
  <sodipodi:namedview
     id="base"
     pagecolor="#ffffff"
     bordercolor="#666666"
     borderopacity="1.0"
     inkscape:pageopacity="0.0"
     inkscape:pageshadow="2"
     inkscape:zoom="63.356767"
     inkscape:cx="4.497937"
     inkscape:cy="4.5451148"
     inkscape:document-units="mm"
     inkscape:current-layer="layer1"
     inkscape:document-rotation="0"
     showgrid="false"
     inkscape:window-width="1267"
     inkscape:window-height="1040"
     inkscape:window-x="208"
     inkscape:window-y="0"
     inkscape:window-maximized="0" />
  <metadata
     id="metadata5">
    <rdf:RDF>
      <cc:Work
         rdf:about="">
        <dc:format>image/svg+xml</dc:format>
        <dc:type
           rdf:resource="http://purl.org/dc/dcmitype/StillImage" />
        <dc:title></dc:title>
      </cc:Work>
    </rdf:RDF>
  </metadata>
  <g
     inkscape:label="Layer 1"
     inkscape:groupmode="layer"
     id="layer1">
    <path
       d="m 0,1.210412 m 0.03256,0.469253 c 0.0096,0.01149 0.01724,0.01341 0.0249,0.01341 0.0096,0 0.01724,-0.0057 0.01724,-0.0057 C 0.15706,1.641405 0.224095,1.56671 0.293047,1.518827 0.538208,1.348364 0.622482,1.179815 0.622482,1.053404 c 0,-0.157056 -0.120665,-0.256652 -0.247076,-0.264314 -0.04788,0 -0.113004,0.02107 -0.151311,0.04597 -0.01724,0.01341 -0.04788,0.03831 -0.06129,0.03831 -0.0057,0 -0.0077,0 -0.01341,-0.0019 C 0.130245,0.86377 0.118755,0.84274 0.118755,0.82359 0.120655,0.76422 0.137905,0.101514 0.137905,0.04597 0.137905,0.01533 0.113005,0 0.086195,0 0.045975,0 0.001925,0.02681 5e-6,0.07661 c 0,0 0.01149,1.574392 0.03256,1.603122 m 0.09385,-0.609071 c 0.01915,-0.05554 0.130242,-0.135988 0.193447,-0.135988 0.08044,0 0.113004,0.09193 0.113004,0.160887 0,0.147479 -0.126411,0.296874 -0.245161,0.371572 -0.01149,0.0057 -0.01915,0.0077 -0.02681,0.0077 -0.0249,0 -0.03065,-0.02681 -0.03065,-0.04022 0,0 -0.0096,-0.166633 -0.0096,-0.275806 0,-0.04405 0.0038,-0.07853 0.0057,-0.0881"
       id="path10"
       style="fill:#243041;stroke-width:0.264583" />
  </g>
</svg>
