<?xml version="1.0" encoding="UTF-8" standalone="no"?>
<svg
   xmlns:dc="http://purl.org/dc/elements/1.1/"
   xmlns:cc="http://creativecommons.org/ns#"
   xmlns:rdf="http://www.w3.org/1999/02/22-rdf-syntax-ns#"
   xmlns:svg="http://www.w3.org/2000/svg"
   xmlns="http://www.w3.org/2000/svg"
   xmlns:sodipodi="http://sodipodi.sourceforge.net/DTD/sodipodi-0.dtd"
   xmlns:inkscape="http://www.inkscape.org/namespaces/inkscape"
   width="0.79097199mm"
   height="1.6892999mm"
   viewBox="0 0 0.79097199 1.6892999"
   version="1.1"
   id="svg8"
   inkscape:version="1.0.1 (3bc2e813f5, 2020-09-07)"
   sodipodi:docname="b8.svg">
  <defs
     id="defs2" />
  <sodipodi:namedview
     id="base"
     pagecolor="#ffffff"
     bordercolor="#666666"
     borderopacity="1.0"
     inkscape:pageopacity="0.0"
     inkscape:pageshadow="2"
     inkscape:zoom="44.8"
     inkscape:cx="5.7556445"
     inkscape:cy="8.6821786"
     inkscape:document-units="mm"
     inkscape:current-layer="layer1"
     inkscape:document-rotation="0"
     showgrid="false"
     inkscape:window-width="1267"
     inkscape:window-height="1040"
     inkscape:window-x="26"
     inkscape:window-y="0"
     inkscape:window-maximized="0" />
  <metadata
     id="metadata5">
    <rdf:RDF>
      <cc:Work
         rdf:about="">
        <dc:format>image/svg+xml</dc:format>
        <dc:type
           rdf:resource="http://purl.org/dc/dcmitype/StillImage" />
        <dc:title></dc:title>
      </cc:Work>
    </rdf:RDF>
  </metadata>
  <g
     inkscape:label="Layer 1"
     inkscape:groupmode="layer"
     id="layer1">
    <path
       d="M 0,1.208557 M 0.0019,0.289204 v 0.141734 c 0,0.01149 0.0057,0.02107 0.02107,0.02107 0.0038,0 0.12258,-0.04405 0.128326,-0.04597 0.01341,0 0.01915,0.0077 0.01915,0.01341 0,0.0249 0,0.0498 0.0038,0.06895 0,0.02298 -0.0038,0.02873 -0.01724,0.03256 -0.01149,0.0057 -0.126411,0.05363 -0.126411,0.05363 -0.01915,0 -0.02873,0.0057 -0.02873,0.01915 v 0.139819 c 0,0.01149 0.0057,0.02298 0.02298,0.02298 0.0057,0 0.111089,-0.04214 0.126411,-0.0498 0.01915,0 0.0249,0.01149 0.0249,0.02107 0.0057,0.436693 0.01724,0.932761 0.02873,0.944253 0.0077,0.01341 0.01532,0.01724 0.0249,0.01724 0.0077,0 0.01532,-0.0057 0.01532,-0.0057 0.08236,-0.04405 0.15131,-0.12258 0.214516,-0.168548 0.243245,-0.170463 0.33135,-0.337096 0.33135,-0.467338 0,-0.157056 -0.120665,-0.252822 -0.247076,-0.260483 -0.04788,0 -0.105343,0.02107 -0.14748,0.04597 -0.02107,0.01149 -0.04405,0.03831 -0.06895,0.03831 -0.0019,0 -0.0057,-0.0019 -0.0077,-0.0019 -0.01915,-0.0077 -0.03064,-0.02873 -0.03064,-0.0498 0,-0.01341 0,-0.06321 0.0038,-0.126411 0,-0.01149 0,-0.03831 0.01915,-0.04405 0.01915,-0.0096 0.388809,-0.143649 0.388809,-0.143649 0.01532,-0.0057 0.0249,-0.01724 0.0249,-0.03064 V 0.342905 c 0,-0.01149 -0.0038,-0.02298 -0.01724,-0.02298 -0.0077,0 -0.383064,0.137903 -0.394556,0.143649 -0.0019,0 -0.01532,-0.0077 -0.01532,-0.01341 0.0019,-0.0249 0.0019,-0.06129 0.0019,-0.07661 0,-0.01724 0.0077,-0.0249 0.01915,-0.03064 0.01149,-0.0057 0.381149,-0.141734 0.381149,-0.141734 0.01532,-0.0038 0.0249,-0.01532 0.0249,-0.02681 V 0.038307 c 0,-0.0096 -0.0038,-0.02107 -0.01724,-0.02107 -0.0077,0 -0.375402,0.134072 -0.383064,0.137903 -0.01341,0 -0.01915,-0.0077 -0.01915,-0.01341 0,-0.05363 0.0019,-0.08619 0.0019,-0.09768 C 0.308214,0.01341 0.283314,0 0.256504,0 0.218194,0 0.174144,0.02873 0.170314,0.07853 v 0.11875 c 0,0.0038 -0.0019,0.01915 -0.01532,0.02107 -0.0096,0.0057 -0.124496,0.0498 -0.124496,0.0498 -0.01915,0.0019 -0.02873,0.01149 -0.02873,0.02107 m 0.293043,0.779535 c 0.01149,-0.03639 0.08236,-0.09768 0.124496,-0.11875 0.0249,-0.01149 0.04597,-0.01724 0.06895,-0.01724 0.02681,0 0.05171,0.0077 0.07087,0.02681 0.0249,0.03064 0.04214,0.0747 0.04214,0.130242 0,0.15131 -0.120665,0.298789 -0.24516,0.371571 -0.01149,0.0057 -0.01915,0.0096 -0.0249,0.0096 -0.02298,0 -0.03064,-0.02873 -0.03064,-0.04405 0,0 -0.0077,-0.176209 -0.0077,-0.285382 0,-0.03448 0,-0.06321 0.0019,-0.07278"
       id="path10"
       style="fill:#243041;stroke-width:0.264583" />
  </g>
</svg>
