<?xml version="1.0" encoding="UTF-8" standalone="no"?>
<svg
   xmlns:dc="http://purl.org/dc/elements/1.1/"
   xmlns:cc="http://creativecommons.org/ns#"
   xmlns:rdf="http://www.w3.org/1999/02/22-rdf-syntax-ns#"
   xmlns:svg="http://www.w3.org/2000/svg"
   xmlns="http://www.w3.org/2000/svg"
   xmlns:sodipodi="http://sodipodi.sourceforge.net/DTD/sodipodi-0.dtd"
   xmlns:inkscape="http://www.inkscape.org/namespaces/inkscape"
   width="0.93662mm"
   height="1.81774mm"
   viewBox="0 0 0.93662 1.81774"
   version="1.1"
   id="svg46"
   inkscape:version="1.0.1 (3bc2e813f5, 2020-09-07)"
   sodipodi:docname="d5.svg">
  <defs
     id="defs40" />
  <sodipodi:namedview
     id="base"
     pagecolor="#ffffff"
     bordercolor="#666666"
     borderopacity="1.0"
     inkscape:pageopacity="0.0"
     inkscape:pageshadow="2"
     inkscape:zoom="0.35"
     inkscape:cx="400"
     inkscape:cy="560"
     inkscape:document-units="mm"
     inkscape:current-layer="layer1"
     inkscape:document-rotation="0"
     showgrid="false"
     inkscape:window-width="1267"
     inkscape:window-height="1040"
     inkscape:window-x="104"
     inkscape:window-y="0"
     inkscape:window-maximized="0" />
  <metadata
     id="metadata43">
    <rdf:RDF>
      <cc:Work
         rdf:about="">
        <dc:format>image/svg+xml</dc:format>
        <dc:type
           rdf:resource="http://purl.org/dc/dcmitype/StillImage" />
        <dc:title></dc:title>
      </cc:Work>
    </rdf:RDF>
  </metadata>
  <g
     inkscape:label="Layer 1"
     inkscape:groupmode="layer"
     id="layer1">
    <path
       d="M 0.001928,0.884946 M 2.8e-5,0.971136 V 1.14926 c 0,0.01341 0.0077,0.03065 0.0249,0.03065 L 0.413736,1.036261 c 0.0077,0 0.0096,0.0038 0.0096,0.0096 v 0.04022 c 0,0.01915 -0.0019,0.02873 -0.01916,0.03256 -0.01532,0.0096 -0.212601,0.0881 -0.212601,0.0881 -0.01916,0.0096 -0.03256,0.02873 -0.03256,0.04788 v 0.195363 c 0,0.01341 0.0076,0.02298 0.01915,0.02298 0.0057,0 0.0077,0 0.01342,-0.0038 0,0 0.191532,-0.07661 0.210685,-0.08236 0.02106,0 0.02106,0.0038 0.02106,0.03064 V 1.7871 c 0,0.01724 0.01725,0.03064 0.03639,0.03064 0.04214,0 0.04788,-0.01915 0.04788,-0.04405 V 1.390626 c 0,-0.0096 0,-0.01532 0.0019,-0.02107 0.0057,-0.01532 0.01341,-0.03256 0.02681,-0.03831 0.01916,-0.0077 0.222176,-0.08427 0.222176,-0.08427 0.01916,-0.0096 0.03256,-0.02873 0.03256,-0.04788 V 1.003734 c 0,-0.01341 -0.0057,-0.02299 -0.01916,-0.02299 -0.0038,0 -0.0096,0 -0.01341,0.0038 l -0.224092,0.08427 c -0.01916,0 -0.02682,-0.0038 -0.02682,-0.01915 V 1.015187 c 0,-0.01149 0.0019,-0.01532 0.0096,-0.01724 0.0096,-0.0019 0.386896,-0.145564 0.386896,-0.145564 0.0249,-0.0096 0.03256,-0.01915 0.03256,-0.03639 V 0.641699 c 0,-0.01341 -0.0019,-0.03256 -0.02106,-0.03256 -0.0038,0 -0.0096,0.0057 -0.01148,0.0057 v -0.0038 c 0,0 -0.361995,0.137903 -0.377319,0.143649 -0.0038,0 -0.0096,0.0038 -0.01148,0.0038 -0.0077,0 -0.0077,-0.0057 -0.0077,-0.0096 v -0.04022 c 0,-0.01149 0.0019,-0.01341 0.01341,-0.01915 l 0.237498,-0.09193 c 0.01916,-0.0077 0.03256,-0.02682 0.03256,-0.04597 V 0.356255 c 0,-0.01532 -0.0057,-0.02298 -0.01916,-0.02298 -0.0038,0 -0.0096,0 -0.01342,0.0019 0,0 -0.210685,0.07853 -0.216429,0.08044 -0.0249,0 -0.03448,-0.03256 -0.03448,-0.05554 V 0.03064 C 0.50756,0.0134 0.49034,0 0.47117,0 0.42712,0 0.42329,0.02107 0.42329,0.04405 v 0.358165 c -0.0019,0.0249 -0.0096,0.05554 -0.03065,0.0747 -0.05746,0.02107 -0.147479,0.07087 -0.201107,0.07087 -0.01916,0.0096 -0.03256,0.02873 -0.03256,0.04788 v 0.195363 c 0,0.01341 0.0076,0.02298 0.01916,0.02298 0.0057,0 0.0077,0 0.01341,-0.0038 l 0.212601,-0.07661 c 0.0038,-0.0038 0.0096,-0.0038 0.01148,-0.0038 0.0057,0 0.0077,0.0038 0.0077,0.0057 v 0.04214 c 0,0.0077 0,0.01532 -0.0077,0.01915 C 0.404144,0.798688 0.03256,0.940437 0.03256,0.940437 0.00957,0.946137 0,0.953847 0,0.971077"
       id="path48"
       style="fill:#243041;stroke-width:0.264583" />
  </g>
</svg>
