<?xml version="1.0" encoding="UTF-8" standalone="no"?>
<svg
   xmlns:dc="http://purl.org/dc/elements/1.1/"
   xmlns:cc="http://creativecommons.org/ns#"
   xmlns:rdf="http://www.w3.org/1999/02/22-rdf-syntax-ns#"
   xmlns:svg="http://www.w3.org/2000/svg"
   xmlns="http://www.w3.org/2000/svg"
   xmlns:sodipodi="http://sodipodi.sourceforge.net/DTD/sodipodi-0.dtd"
   xmlns:inkscape="http://www.inkscape.org/namespaces/inkscape"
   width="1.75188mm"
   height="7.0435848mm"
   viewBox="0 0 1.75188 7.0435848"
   version="1.1"
   id="svg8"
   inkscape:version="1.0.1 (3bc2e813f5, 2020-09-07)"
   sodipodi:docname="nat.svg">
  <defs
     id="defs2" />
  <sodipodi:namedview
     id="base"
     pagecolor="#ffffff"
     bordercolor="#666666"
     borderopacity="1.0"
     inkscape:pageopacity="0.0"
     inkscape:pageshadow="2"
     inkscape:zoom="3.959798"
     inkscape:cx="135.35745"
     inkscape:cy="93.015152"
     inkscape:document-units="mm"
     inkscape:current-layer="layer1"
     inkscape:document-rotation="0"
     showgrid="false"
     inkscape:window-width="1920"
     inkscape:window-height="1017"
     inkscape:window-x="-8"
     inkscape:window-y="-8"
     inkscape:window-maximized="1" />
  <metadata
     id="metadata5">
    <rdf:RDF>
      <cc:Work
         rdf:about="">
        <dc:format>image/svg+xml</dc:format>
        <dc:type
           rdf:resource="http://purl.org/dc/dcmitype/StillImage" />
        <dc:title></dc:title>
      </cc:Work>
    </rdf:RDF>
  </metadata>
  <g
     inkscape:label="Layer 1"
     inkscape:groupmode="layer"
     id="layer1">
    <path
       stroke="none"
       stroke-dasharray="none"
       d="m 0,3.554387 m 0,1.940052 c 0,0.05791 0.029,0.09411 0.0869,0.09411 0.007,0 0.0579,-0.01448 0.0724,-0.02172 0.14478,-0.06515 0.7239,-0.311277 1.02794,-0.311277 0.10858,0 0.18097,0.02896 0.18097,0.115824 v 1.549146 c 0,0.07239 0.0507,0.123063 0.12307,0.123063 h 0.13754 c 0.0579,0 0.12306,-0.05067 0.12306,-0.123063 V 1.686725 c 0,-0.05067 -0.0434,-0.07963 -0.0869,-0.07963 -0.007,0 -0.029,0 -0.0362,0.0072 l -0.15926,0.05067 c -0.0217,0 -0.029,0.01448 -0.0434,0.01448 0,0 -0.66599,0.238887 -0.93383,0.238887 -0.0652,0 -0.10859,-0.01448 -0.10859,-0.05067 V 0.123063 C 0.3837,0.050673 0.3258,0 0.26064,0 H 0.1231 C 0.0507,0 3e-5,0.05067 3e-5,0.123063 m 1.27407,2.60604 c 0.0579,0 0.0941,0.01448 0.0941,0.05067 v 1.078611 c 0,0.188214 -0.59359,0.427101 -0.8542,0.427101 -0.0796,0 -0.1303,-0.02172 -0.1303,-0.06515 V 3.148963 c 0,-0.14478 0.63703,-0.419862 0.8904,-0.419862"
       id="path19" style="fill:#243041;stroke-width:0.079375" />
  </g>
</svg>
