<?xml version="1.0" encoding="UTF-8" standalone="no"?>
<svg
   xmlns:dc="http://purl.org/dc/elements/1.1/"
   xmlns:cc="http://creativecommons.org/ns#"
   xmlns:rdf="http://www.w3.org/1999/02/22-rdf-syntax-ns#"
   xmlns:svg="http://www.w3.org/2000/svg"
   xmlns="http://www.w3.org/2000/svg"
   xmlns:xlink="http://www.w3.org/1999/xlink"
   width="6.2621107mm"
   height="19.049868mm"
   viewBox="0 0 6.2621107 19.049868"
   version="1.1"
   id="svg8">
  <defs
     id="defs2">
    <symbol
       id="ms_note_2">
      <title
         id="title110">note 2</title>
      <path
         d="m 5.4343379,0 v 14.801173 c -0.4309533,-0.378704 -1.0960364,-0.57185 -1.8288264,-0.559652 -0.5339556,0.009 -1.1029429,0.123057 -1.6422696,0.350869 -1.56900559,0.662808 -2.29081538,2.027661 -1.82210601,3.13727 0.46873584,1.109689 1.95016441,1.543818 3.51914431,0.881089 1.4950017,-0.631481 2.5269825,-2.030253 2.2158854,-3.120734 V 0.11523662 Z M 4.3574044,15.06782 c 0.4186502,0 0.7202752,0.112077 0.8552392,0.314722 0.3302793,0.495855 -0.4006586,1.40118 -1.6324527,2.021575 C 2.3483959,18.024512 1.0821794,18.125212 0.75192652,17.62941 0.42162069,17.133528 1.1525851,16.228679 2.3844057,15.608363 3.0650471,15.265569 3.7913813,15.066947 4.3574044,15.06782 Z"
         id="path112"
         style="fill:#243041;stroke-width:0.264583" />
    </symbol>
    <symbol
       id="ms_fermata">
      <title
         id="title272">Fermata</title>
      <path
         d="m 7.1321348,5.6381385 c 0,0.6880755 -0.5577681,1.2458436 -1.2458436,1.2458436 -0.6880754,0 -1.24587,-0.5577681 -1.24587,-1.2458436 0,-0.6880225 0.5577946,-1.24587 1.24587,-1.24587 0.6880755,0 1.2458436,0.5577946 1.2458436,1.24587 z M 0.33242118,6.8736369 c -0.0319881,0.2968889 -0.3355975,0.3150923 -0.33239604271,0 C 0.03902472,3.0436873 2.7280129,0 5.8863706,0 c 3.15849,0 5.7521744,3.0461744 5.8863704,6.8741396 0.01005,0.2988998 -0.308398,0.3205162 -0.334407,-0.024077 -0.2082,-2.7558735 -2.6107757,-4.9324683 -5.5564084,-4.9327329 -2.9456327,0 -5.24920234,2.1983171 -5.54950442,4.9563072 z"
         id="path274"
         style="fill:#243041;stroke-width:0.264583" />
    </symbol>
    <symbol
       id="ms_dot_of_note">
      <title
         id="title160">Dot of note</title>
      <path
         d="M 1.7286023,0.86429585 C 1.7286023,1.341591 1.3416492,1.7285891 0.86431437,1.7285891 0.38695312,1.7285891 0,1.341591 0,0.86429585 0,0.38689756 0.38695312,0 0.86431437,0 1.3416492,0 1.7286023,0.38689756 1.7286023,0.86429585 Z"
         id="path162"
         style="fill:#243041;stroke-width:0.264583" />
    </symbol>
    <symbol
       id="ms_repeat_sign_a">
      <title
         id="title60">Repeat sign A</title>
      <path
         d="M 4.917649,10.702369 A 0.67222979,0.67222979 0 0 0 5.5898759,11.374596 0.67222979,0.67222979 0 0 0 6.2621107,10.702369 0.67222979,0.67222979 0 0 0 5.5898759,10.030142 0.67222979,0.67222979 0 0 0 4.917649,10.702369 Z m 0,-4.6472207 A 0.67222979,0.67222979 0 0 0 5.5898759,6.7273752 0.67222979,0.67222979 0 0 0 6.2621107,6.0551483 0.67222979,0.67222979 0 0 0 5.5898759,5.382895 0.67222979,0.67222979 0 0 0 4.917649,6.0551483 Z M 0,19.049868 H 2.0271317 V 0 H 0 Z m 3.1750026,0 H 3.6146502 V 0 H 3.1750026 Z"
         id="path62"
         style="fill:#243041;stroke-width:0.264583" />
    </symbol>
  </defs>
  <metadata
     id="metadata5">
    <rdf:RDF>
      <cc:Work
         rdf:about="">
        <dc:format>image/svg+xml</dc:format>
        <dc:type
           rdf:resource="http://purl.org/dc/dcmitype/StillImage" />
        <dc:title></dc:title>
      </cc:Work>
    </rdf:RDF>
  </metadata>
  <g
     id="layer1">
    <use
       xlink:href="#ms_repeat_sign_a"
       id="use1075"
       x="0"
       y="0"
       width="100%"
       height="100%" />
  </g>
</svg>
